<svg height="600" width="1050" xmlns="http://www.w3.org/2000/svg" xmlns:xlink="http://www.w3.org/1999/xlink"><path d="m.000061 0h1050v600h-1050z" fill="#fff"/><path d="m.000061 0h1050v199.99998h-1050z" fill="#239f40"/><path d="m.000061 400h1050v199.99998h-1050z" fill="#da0000"/><g transform="matrix(.29732267 0 0 .29732267 427.736448 237.794715)"><path d="m123.25852 393.56526h407.57228v-23.03339h-407.57228z" fill="#f6b721" stroke="#000" stroke-width="3.543553"/><path d="m136.15337 368.76009c.29719 4.349 1.7856 11.29624 3.5065 13.28847-6.62803-.96143-6.95692-8.93476-7.78434-13.13301zm12.34236 0c.29719 4.349 1.78559 11.29624 3.50649 13.28847-6.62802-.96143-6.95691-8.93476-7.78433-13.13301zm12.34236 0c.29721 4.349 1.78562 11.29624 3.5065 13.28847-6.62803-.96143-6.95693-8.93476-7.78435-13.13301zm12.34238 0c.29718 4.349 1.7856 11.29624 3.50648 13.28847-6.62803-.96143-6.95692-8.93476-7.78435-13.13301zm12.34236 0c.29718 4.349 1.7856 11.29624 3.5064 13.28847-6.62795-.96143-6.95683-8.93476-7.78425-13.13301zm12.34236 0c.29719 4.349 1.7856 11.29624 3.5064 13.28847-6.62794-.96143-6.95683-8.93476-7.78435-13.13301zm12.34236 0c.29719 4.349 1.7856 11.29624 3.5064 13.28847-6.62794-.96143-6.95683-8.93476-7.78434-13.13301zm12.34228 0c.29719 4.349 1.78567 11.29624 3.50648 13.28847-6.62794-.96143-6.95691-8.93476-7.78433-13.13301zm12.34236 0c.29719 4.349 1.78568 11.29624 3.50649 13.28847-6.62796-.96143-6.95692-8.93476-7.78434-13.13301zm12.34236 0c.29719 4.349 1.78569 11.29624 3.50649 13.28847-6.62803-.96143-6.95692-8.93476-7.78434-13.13301zm12.34237 0c.2972 4.349 1.78568 11.29624 3.50648 13.28847-6.62803-.96143-6.95692-8.93476-7.78434-13.13301zm12.34237 0c.29718 4.349 1.78567 11.29624 3.50647 13.28847-6.62803-.96143-6.95691-8.93476-7.78432-13.13301zm12.34236 0c.29718 4.349 1.78567 11.29624 3.50647 13.28847-6.62802-.96143-6.9569-8.93476-7.78432-13.13301zm12.34236 0c.29719 4.349 1.78569 11.29624 3.50649 13.28847-6.62803-.96143-6.95692-8.93476-7.78435-13.13301zm12.34236 0c.29719 4.349 1.7856 11.29624 3.50649 13.28847-6.62803-.96143-6.95692-8.93476-7.78434-13.13301zm12.34236 0c.29718 4.349 1.78561 11.29624 3.50649 13.28847-6.62803-.96143-6.95692-8.93476-7.78434-13.13301zm12.34237 0c.29719 4.349 1.7856 11.29624 3.50647 13.28847-6.62802-.96143-6.9569-8.93476-7.78433-13.13301zm12.34237 0c.29718 4.349 1.78559 11.29624 3.50639 13.28847-6.62795-.96143-6.95683-8.93476-7.78433-13.13301zm12.34236 0c.29718 4.349 1.7856 11.29624 3.50639 13.28847-6.62793-.96143-6.95683-8.93476-7.78433-13.13301zm12.34228 0c.29717 4.349 1.78568 11.29624 3.50647 13.28847-6.62794-.96143-6.95682-8.93476-7.78432-13.13301zm12.34232 0c.29722 4.349 1.78571 11.29624 3.50648 13.28847-6.6279-.96143-6.95687-8.93476-7.78429-13.13301zm12.34242 0c.29713 4.349 1.78562 11.29624 3.50648 13.28847-6.62794-.96143-6.95696-8.93476-7.78439-13.13301zm12.34234 0c.29722 4.349 1.7857 11.29624 3.50647 13.28847-6.62802-.96143-6.95687-8.93476-7.7843-13.13301zm12.34233 0c.29722 4.349 1.78571 11.29624 3.50648 13.28847-6.62794-.96143-6.95687-8.93476-7.7843-13.13301zm12.34242 0c.29714 4.349 1.78562 11.29624 3.50648 13.28847-6.62803-.96143-6.95696-8.93476-7.7843-13.13301zm12.34234 0c.29722 4.349 1.7857 11.29624 3.50647 13.28847-6.62802-.96143-6.95687-8.93476-7.7843-13.13301zm12.34233 0c.29722 4.349 1.78571 11.29624 3.50648 13.28847-6.62794-.96143-6.95687-8.93476-7.7843-13.13301zm12.34243 0c.29713 4.349 1.78561 11.29624 3.50647 13.28847-6.62803-.96143-6.95696-8.93476-7.78439-13.13301zm12.34233 0c.29722 4.349 1.78562 11.29624 3.50647 13.28847-6.62802-.96143-6.95687-8.93476-7.7843-13.13301zm12.34233 0c.29722 4.349 1.78562 11.29624 3.50648 13.28847-6.62803-.96143-6.95687-8.93476-7.7843-13.13301zm12.34243 0c.29713 4.349 1.78561 11.29624 3.50638 13.28847-6.62794-.96143-6.95687-8.93476-7.7843-13.13301zm12.34233 0c.29722 4.349 1.78562 11.29624 3.50638 13.28847-6.62793-.96143-6.95678-8.93476-7.78429-13.13301z"/></g><g fill="#f6b721" transform="translate(-56.857112 -100.222145)"><g stroke="#000"><path d="m317.77797 484.23678c1.01676 1.20288.90372 1.13574 1.78125 2.21875-7.86947.0204-17.79707-1.64543-25.0625-3.60849-4.79772-1.2963-11.7554-3.67794-18.03125-6.5s-11.93049-6.41072-13.78125-8.65625c-1.322-1.60398-2.21151-2.2346-2.4375-3.92276s-.50069-7.35732 6.24975-8.23171l-13.12475-2.04954c-2.73736 3.45292-3.54721 7.77067-3.03125 11.625s2.20923 7.38145 4.625 10.3125c4.06848 4.93626 10.48963 8.34136 17.375 11.4375 6.88538 3.09614 14.16326 5.54961 19.53125 7 15.12184 4.08578 38.25 2.46875 38.25 2.46875l9.21875-.53125-5.46875-7.4375s-3.60628-4.87813-8.4375-10.59375z" stroke-width="3.5" transform="matrix(-.29732267 0 0 .29732267 682.98897 336.01686)"/><path d="m317.77797 484.23678c1.01676 1.20288.90372 1.13574 1.78125 2.21875-7.86947.0204-17.79707-1.64543-25.0625-3.60849-4.79772-1.2963-11.7554-3.67794-18.03125-6.5s-11.93049-6.41072-13.78125-8.65625c-1.322-1.60398-2.21151-2.2346-2.4375-3.92276s-.50069-7.35732 6.24975-8.23171l-13.12475-2.04954c-2.73736 3.45292-3.54721 7.77067-3.03125 11.625s2.20923 7.38145 4.625 10.3125c4.06848 4.93626 10.48963 8.34136 17.375 11.4375 6.88538 3.09614 14.16326 5.54961 19.53125 7 15.12184 4.08578 38.25 2.46875 38.25 2.46875l9.21875-.53125-5.46875-7.4375s-3.60628-4.87813-8.4375-10.59375z" stroke-width="3.5" transform="matrix(.29732267 0 0 .29732267 481.14229 336.01686)"/><g transform="matrix(.29732267 0 0 .29732267 480.64829 336.01686)"><g stroke-width="3.5"><path d="m544.28751 28.027922c-4.74652-4.813131 7.84759-1.617263 8.14386-7.609327-8.00613-3.036825-22.71282-1.86396-23.36144-9.080928 1.05968-4.4932949 6.95928 1.597502 7.10672-7.0066285-5.87046-5.28570724-10.64188-4.8394837-15.94274-14.6819645 2.62009-5.374768 8.21997 2.5093966 11.20103-5.27733-1.44337-4.398812-7.32701-11.342601-4.86418-16.299445 2.94534-2.347957 6.71721 3.76997 7.89896.490881 1.43696-3.987252-2.51553-12.079321 1.09358-12.807848 4.58671.271888 9.54014 6.63465 10.85494 10.889027 1.96821 2.413345 7.16105-7.194126 10.11915-1.985924 3.78756 6.668599.29056 11.893709 2.5769 20.896351 5.35897 6.0454535 7.55802-10.404649 11.39161-4.161381 4.49132 7.314398-.15859 14.6786844-.20125 22.5809171 4.09074 4.6366948 7.24445-6.2381521 11.3352-.7027911.18761 10.175052 1.65486 21.089717-3.89575 30.189226-18.88376 3.463249-29.56662-3.347808-33.45659-5.432835z" transform="matrix(.81340658 -.58169558 .58169558 .81340658 13.471637 291.59984)"/><path d="m578.5 156.34375c-7.40689.002-22.46378 3.60126-20.28125 12.125 1.37037 5.35187 14.52537 9.2188 21.84375 7.96875 6.96281.19429 9.54468-4.42801 11.125-8.125 7.16475.071 14.29811 2.12801 20.125 4.40625-5.72896-6.25038-12.74094-9.03727-20.125-9.71875-3.3858-5.51028-6.83771-5.8953-12.125-6.59375-.0898-.0194-.19574-.0485-.28125-.0625-.0777-.00091-.17051.00008-.25 0-.009-.004-.0226.004-.0312 0z" transform="matrix(.06304715 .99801055 -.99801055 .06304715 648.01734 -160.292813)"/><path d="m578.5 156.34375c-7.40689.002-22.46378 3.60126-20.28125 12.125 1.37037 5.35187 14.52537 9.2188 21.84375 7.96875 6.96281.19429 9.54468-4.42801 11.125-8.125 7.16475.071 14.29811 2.12801 20.125 4.40625-5.72896-6.25038-12.74094-9.03727-20.125-9.71875-3.3858-5.51028-6.83771-5.8953-12.125-6.59375-.0898-.0194-.19574-.0485-.28125-.0625-.0777-.00091-.17051.00008-.25 0-.009-.004-.0226.004-.0312 0z" transform="matrix(-.99967072 .02566039 .02566039 .99967072 1197.717276 206.518254)"/><path d="m578.5 156.34375c-7.40689.002-22.46378 3.60126-20.28125 12.125 1.37037 5.35187 14.52537 9.2188 21.84375 7.96875 6.96281.19429 9.54468-4.42801 11.125-8.125 7.16475.071 14.29811 2.12801 20.125 4.40625-5.72896-6.25038-12.74094-9.03727-20.125-9.71875-3.3858-5.51028-6.83771-5.8953-12.125-6.59375-.0898-.0194-.19574-.0485-.28125-.0625-.0777-.00091-.17051.00008-.25 0-.009-.004-.0226.004-.0312 0z" transform="matrix(.94276469 .33345876 -.33345876 .94276469 119.631702 -179.121684)"/><path d="m578.5 156.34375c-7.40689.002-22.46378 3.60126-20.28125 12.125 1.37037 5.35187 14.52537 9.2188 21.84375 7.96875 6.96281.19429 9.54468-4.42801 11.125-8.125 7.16475.071 14.29811 2.12801 20.125 4.40625-5.72896-6.25038-12.74094-9.03727-20.125-9.71875-3.3858-5.51028-6.83771-5.8953-12.125-6.59375-.0898-.0194-.19574-.0485-.28125-.0625-.0777-.00091-.17051.00008-.25 0-.009-.004-.0226.004-.0312 0z" transform="matrix(-.43638124 .89976186 .89976186 .43638124 710.180495 -547.829479)"/><path d="m578.5 156.34375c-7.40689.002-22.46378 3.60126-20.28125 12.125 1.37037 5.35187 14.52537 9.2188 21.84375 7.96875 6.96281.19429 9.54468-4.42801 11.125-8.125 7.16475.071 14.29811 2.12801 20.125 4.40625-5.72896-6.25038-12.74094-9.03727-20.125-9.71875-3.3858-5.51028-6.83771-5.8953-12.125-6.59375-.0898-.0194-.19574-.0485-.28125-.0625-.0777-.00091-.17051.00008-.25 0-.009-.004-.0226.004-.0312 0z" transform="matrix(-.05754123 .99834313 .99834313 .05754123 387.738692 -628.427615)"/><path d="m544.14152 27.891634c-4.74652-4.813131 7.84759-1.617263 8.14387-7.609328-8.00613-3.036825-22.71283-1.86396-23.36145-9.080928 1.05969-4.4932949 6.95928 1.597502 7.10673-7.0066284-5.87046-5.2857074-10.64189-4.83948381-15.94274-14.6819636 2.62009-5.374768 8.21997 2.5093955 11.20102-5.27733-1.44337-4.398814-7.32701-11.342601-4.86417-16.299446 2.94534-2.347957 6.71722 3.769971 7.89896.490882 1.43694-3.987255-2.51553-12.079324 1.09357-12.807849 4.58672.271888 9.54015 6.634649 10.85495 10.889027 1.96821 2.413346 7.16104-7.194125 10.11914-1.985924 3.78755 6.668599.29056 11.893709 2.5769 20.896351 5.35898 6.0454533 7.55803-10.404648 11.39163-4.161381 4.49131 7.314398-.1586 14.6786843-.20126 22.5809172 4.09075 4.6366946 7.24444-6.2381524 11.33519-.7027911.18762 10.1750519 1.65486 21.0897159-3.89575 30.1892269-18.88375 3.463248-29.56663-3.347809-33.45659-5.432835z" transform="matrix(.9809337 .19434268 -.19434268 .9809337 30.240373 -95.668222)"/></g><g stroke-width="3.928392"><path d="m544.12113 27.995094c-4.74653-4.813131 7.84759-1.617263 8.14386-7.609326-8.00613-3.036826-22.71282-1.86396-23.36145-9.080929 1.05969-4.4932951 6.95929 1.597502 7.10673-7.0066287-5.87046-5.28570725-10.64189-4.8394837-15.94274-14.6819643 2.62009-5.374767 8.21997 2.5093962 11.20103-5.27733-1.44337-4.398814-7.32701-11.3426-4.86418-16.299446 2.94534-2.347957 6.71721 3.769972 7.89896.490882 1.43696-3.987254-2.51554-12.079324 1.09357-12.807849 4.58671.271889 9.54015 6.634649 10.85496 10.889027 1.9682 2.413347 7.16103-7.194125 10.11914-1.985923 3.78755 6.668599.29055 11.893708 2.5769 20.896351 5.35897 6.0454531 7.55802-10.404649 11.39162-4.16138 4.49131 7.314397-.1586 14.6786832-.20126 22.580916 4.09075 4.6366946 7.24445-6.2381524 11.3352-.7027912.18761 10.1750512-2.83548 21.8665612-8.38609 30.9660722-18.88377 3.463249-25.07628-4.124654-28.96625-6.209681z" transform="matrix(-.520906 .72281239 -.72281313 -.52088739 787.37842 88.008428)"/><path d="m544.22916 27.878641c-4.74651-4.813132 7.84759-1.617263 8.14388-7.609328-8.00614-3.036825-22.71284-1.863959-23.36146-9.080928 1.05968-4.4932946 6.95927 1.597502 7.10671-7.0066282-5.87046-5.2857073-10.64185-4.83948374-15.94273-14.6819648 2.62011-5.374766 8.21997 2.5093969 11.20102-5.277328-1.44336-4.398814-7.32701-11.342602-4.86418-16.299448 2.94535-2.347956 6.71722 3.769973 7.89897.490884 1.43695-3.987255-2.51552-12.079325 1.09358-12.807849 4.58671.271888 9.54014 6.634648 10.85493 10.889026 1.96823 2.413346 7.16107-7.194125 10.11915-1.985925 3.78756 6.668599.29058 11.89371 2.57692 20.896353 5.35896 6.0454526 7.55802-10.40465 11.39161-4.161381 4.49131 7.314398-.15857 14.6786837-.20124 22.5809165 4.09075 4.6366946 7.24444-6.2381524 11.33517-.7027912.18764 10.1750517 1.65486 21.0897157-3.89573 30.1892267-18.88376 3.463249-29.56664-3.347808-33.4566-5.432835z" transform="matrix(.13690069 .88037437 -.88036181 .13691445 389.52154 -35.081691)"/><path d="m544.29429 27.998039c-4.74651-4.81313 7.84759-1.617263 8.14387-7.609326-8.00613-3.036826-22.71282-1.86396-23.36145-9.080928 1.05968-4.4932963 6.95928 1.5975 7.10672-7.0066299-5.87046-5.28570734-10.64188-4.83948379-15.94273-14.6819641 2.62009-5.374768 8.21996 2.509396 11.20102-5.277329-1.44337-4.398815-7.32701-11.342602-4.86418-16.299447 2.94534-2.347957 6.71723 3.769972 7.89896.490882 1.43696-3.987254-2.51553-12.079324 1.09358-12.807849 4.58671.271889 9.54014 6.63465 10.85495 10.889027 1.96821 2.413347 7.16104-7.194125 10.11914-1.985923 3.78755 6.668598.29056 11.893708 2.5769 20.896351 5.35897 6.0454529 7.55803-10.40465 11.39162-4.161381 4.49132 7.314397-.15859 14.6786839-.20125 22.5809167 4.09075 4.6366946 7.24445-6.2381524 11.33519-.7027911.18763 10.1750514 1.65486 21.0897154-3.89574 30.1892274-18.88376 3.463248-29.56663-3.347809-33.4566-5.432836z" transform="matrix(.42406985 .78355956 -.78354312 .42407861 316.88123 -35.675421)"/><path d="m544.14466 27.916252c-4.74652-4.813134 7.84759-1.617263 8.14387-7.609329-8.00615-3.036824-22.71283-1.863959-23.36145-9.080927 1.05968-4.4932954 6.95927 1.597501 7.10671-7.006629-5.87044-5.2857073-10.64186-4.83948378-15.94273-14.681964 2.62009-5.374767 8.21998 2.5093959 11.20102-5.27733-1.44336-4.398813-7.327-11.342601-4.86418-16.299446 2.94535-2.347956 6.71722 3.769971 7.89897.490883 1.43696-3.987255-2.51553-12.079324 1.09359-12.807849 4.5867.271888 9.54012 6.634648 10.85494 10.889027 1.96821 2.413345 7.16105-7.194126 10.11913-1.985926 3.78755 6.6686.29057 11.89371 2.57692 20.896353 5.35897 6.0454528 7.55802-10.40465 11.39161-4.161381 4.49132 7.314398-.15859 14.6786838-.20125 22.5809167 4.09075 4.6366945 7.24446-6.2381525 11.33519-.7027912.18762 10.1750515-2.83547 21.8665605-8.38609 30.9660725-18.88376 3.463248-25.07629-4.124654-28.96625-6.20968z" transform="matrix(-.29830339 .83953314 -.83952866 -.29828531 744.12761 -37.185376)"/><path d="m544.15245 27.877789c-4.74653-4.813132 7.84758-1.617264 8.14387-7.609328-8.00615-3.036825-22.71284-1.86396-23.36146-9.080929 1.05969-4.4932937 6.95929 1.597503 7.10672-7.0066273-5.87045-5.2857073-10.64187-4.83948374-15.94273-14.6819647 2.62009-5.374767 8.21997 2.5093967 11.20102-5.277329-1.44338-4.398814-7.32702-11.3426-4.86418-16.299446 2.94534-2.347957 6.71722 3.769972 7.89896.490881 1.43695-3.987254-2.51552-12.079323 1.09358-12.807848 4.58671.271888 9.54014 6.63465 10.85496 10.889027 1.9682 2.413347 7.16103-7.194126 10.11912-1.985923 3.78758 6.668598.29058 11.893708 2.57691 20.89635 5.35897 6.0454534 7.55803-10.404649 11.39162-4.16138 4.49131 7.314398-.15859 14.6786835-.20126 22.5809163 4.09076 4.6366947 7.24445-6.2381523 11.33519-.7027911.18763 10.1750508-2.83548 21.8665608-8.38608 30.9660708-18.88375 3.46325-25.07628-4.124653-28.96624-6.209679z" transform="matrix(.03334141 .89033092 -.89032007 .03335656 615.06075 -146.15892)"/><path d="m544.16229 28.045653c-4.74653-4.813131 7.84758-1.617263 8.14387-7.609327-8.00614-3.036827-22.71283-1.86396-23.36146-9.080928 1.05968-4.4932955 6.95929 1.597502 7.10673-7.006629-5.87047-5.28570738-10.64188-4.83948382-15.94275-14.681965 2.6201-5.374767 8.21997 2.5093969 11.20103-5.277328-1.44337-4.398815-7.32702-11.342601-4.86417-16.299446 2.94533-2.347957 6.7172 3.76997 7.89896.490881 1.43694-3.987254-2.51552-12.079323 1.09358-12.807848 4.58671.271888 9.54014 6.634647 10.85494 10.889025 1.96821 2.413347 7.16104-7.194124 10.11914-1.985924 3.78754 6.6686.29056 11.89371 2.57691 20.896353 5.35897 6.0454528 7.55802-10.40465 11.39162-4.161381 4.49131 7.314397-.1586 14.6786838-.20126 22.5809166 4.09075 4.6366946 7.24444-6.2381524 11.33519-.7027912.18763 10.1750526 1.65485 21.0897166-3.89574 30.1892266-18.88376 3.463249-29.56664-3.347808-33.45659-5.432835z" transform="matrix(.70081304 .55014716 -.55012859 .70081454 208.03111 20.894251)"/><path d="m544.20315 27.965831c-4.74652-4.813132 7.8476-1.617263 8.14387-7.609328-8.00613-3.036825-22.71283-1.863959-23.36146-9.080927 1.05969-4.4932962 6.95929 1.597501 7.10674-7.0066298-5.87047-5.2857072-10.64188-4.83948368-15.94276-14.6819652 2.62011-5.374767 8.21997 2.5093972 11.20104-5.277329-1.44339-4.398813-7.32703-11.342601-4.86418-16.299445 2.94532-2.347957 6.71721 3.769971 7.89896.490882 1.43694-3.987255-2.51552-12.079323 1.09357-12.807849 4.58671.271889 9.54016 6.634648 10.85495 10.889026 1.9682 2.413347 7.16105-7.194125 10.11914-1.985923 3.78756 6.668598.29057 11.893709 2.57691 20.896352 5.35897 6.0454521 7.55802-10.40465 11.39162-4.161382 4.49131 7.314397-.15859 14.678684-.20125 22.5809168 4.09074 4.6366947 7.24444-6.2381523 11.33518-.7027911.18763 10.1750513-2.83548 21.8665603-8.38607 30.9660723-18.88377 3.463249-25.0763-4.124654-28.96626-6.20968z" transform="matrix(.40136622 .79542816 -.79541198 .40137546 440.13766 -205.08578)"/><path d="m544.1418 27.871506c-4.74651-4.813131 7.84758-1.617263 8.14387-7.609326-8.00615-3.036825-22.71283-1.86396-23.36145-9.080929 1.05966-4.4932948 6.95928 1.597502 7.10671-7.0066283-5.87045-5.2857073-10.64187-4.83948373-15.94273-14.6819647 2.62009-5.374768 8.21996 2.5093967 11.20103-5.27733-1.44338-4.398813-7.32703-11.3426-4.86419-16.299445 2.94533-2.347958 6.71723 3.769971 7.89896.490882 1.43696-3.987254-2.51552-12.079324 1.09359-12.807848 4.58671.271887 9.54013 6.634648 10.85494 10.889026 1.96822 2.413346 7.16105-7.194126 10.11914-1.985923 3.78756 6.668597.29057 11.893708 2.57691 20.89635 5.35897 6.0454535 7.55801-10.404648 11.39161-4.161381 4.49131 7.314399-.15859 14.6786844-.20126 22.5809173 4.09076 4.6366947 7.24446-6.2381523 11.33519-.7027911.18764 10.1750508 1.65487 21.0897168-3.89573 30.1892268-18.88377 3.463248-29.56664-3.347808-33.45659-5.432836z" transform="matrix(.88441394 .10776265 -.10774598 .88440561 121.41707 177.77257)"/><path d="m544.25306 27.894973c-4.74652-4.813131 7.84759-1.617263 8.14386-7.609327-8.00613-3.036825-22.71282-1.863959-23.36145-9.080927 1.05969-4.4932955 6.95929 1.5975 7.10673-7.0066291-5.87046-5.2857072-10.64188-4.83948372-15.94273-14.6819649 2.62009-5.374767 8.21996 2.5093969 11.20101-5.277329-1.44336-4.398814-7.32701-11.342601-4.86417-16.299446 2.94535-2.347957 6.71721 3.769972 7.89896.490882 1.43696-3.987253-2.51552-12.079323 1.09357-12.807849 4.58672.271889 9.54015 6.63465 10.85495 10.889026 1.96822 2.413347 7.16104-7.194126 10.11914-1.985923 3.78756 6.668599.29056 11.89371 2.5769 20.896353 5.35898 6.0454516 7.55803-10.404651 11.39162-4.161382 4.49132 7.314396-.15858 14.6786838-.20125 22.5809166 4.09075 4.6366946 7.24444-6.2381524 11.33519-.7027912.18762 10.1750506 1.65487 21.0897166-3.89574 30.1892266-18.88376 3.463249-29.56662-3.347808-33.45659-5.432836z" transform="matrix(.8732305 -.17683128 .17684447 .87321733 113.76029 221.94886)"/><path d="m544.12014 27.994007c-4.74652-4.813132 7.84759-1.617263 8.14387-7.609328-8.00614-3.036825-22.71282-1.863959-23.36145-9.080929 1.05967-4.4932939 6.95927 1.597503 7.10673-7.0066274-5.87048-5.28570725-10.64189-4.83948371-15.94275-14.6819646 2.6201-5.374768 8.21996 2.5093966 11.20102-5.277329-1.44337-4.398813-7.32702-11.3426-4.86418-16.299445 2.94534-2.347958 6.71722 3.76997 7.89897.490881 1.43695-3.987254-2.51551-12.079324 1.09357-12.807848 4.58671.271887 9.54015 6.634648 10.85495 10.889026 1.96821 2.413346 7.16105-7.194125 10.11914-1.985924 3.78755 6.668598.29057 11.893708 2.5769 20.89635 5.35897 6.0454544 7.55803-10.404647 11.39162-4.161379 4.49133 7.314398-.15859 14.6786835-.20124 22.5809162 4.09074 4.6366947 7.24443-6.2381523 11.33518-.7027911.18763 10.1750519-2.83548 21.8665619-8.38607 30.9660709-18.88377 3.46325-25.0763-4.124653-28.96626-6.209679z" transform="matrix(.72607823 .51634408 -.51632545 .72607886 239.45834 -173.70196)"/><path d="m544.29418 27.99741c-4.74651-4.813133 7.8476-1.617263 8.14388-7.609328-8.00614-3.036825-22.71283-1.86396-23.36146-9.080928 1.05969-4.4932952 6.95929 1.597502 7.10673-7.0066286-5.87046-5.28570734-10.64189-4.8394838-15.94275-14.6819634 2.62011-5.374768 8.21998 2.5093954 11.20103-5.277331-1.44337-4.398812-7.32701-11.342601-4.86417-16.299446 2.94533-2.347955 6.71723 3.769972 7.89896.490883 1.43696-3.987254-2.51553-12.079323 1.09357-12.807849 4.58671.271889 9.54015 6.634649 10.85496 10.889027 1.96821 2.413345 7.16104-7.194126 10.11914-1.985924 3.78755 6.668597.29056 11.893708 2.5769 20.896351 5.35897 6.0454532 7.55802-10.404649 11.39162-4.161382 4.49132 7.314398-.1586 14.6786852-.20126 22.580918 4.09076 4.6366946 7.24445-6.2381524 11.3352-.7027912.18762 10.1750512 1.65486 21.0897172-3.89575 30.1892272-18.88377 3.463248-29.56663-3.347809-33.4566-5.432835z" transform="matrix(.78475277 -.42185766 .42186648 .78473635 102.8763 263.9191)"/></g><g stroke-width="3.5"><path d="m578.5 156.34375c-7.40689.002-22.46378 3.60126-20.28125 12.125 1.37037 5.35187 14.52537 9.2188 21.84375 7.96875 6.96281.19429 9.54468-4.42801 11.125-8.125 7.16475.071 14.29811 2.12801 20.125 4.40625-5.72896-6.25038-12.74094-9.03727-20.125-9.71875-3.3858-5.51028-6.83771-5.8953-12.125-6.59375-.0898-.0194-.19574-.0485-.28125-.0625-.0777-.00091-.17051.00008-.25 0-.009-.004-.0226.004-.0312 0z" transform="matrix(.96925878 -.24604353 .24604353 .96925878 -101.753191 -23.471996)"/><path d="m578.5 156.34375c-7.40689.002-22.46378 3.60126-20.28125 12.125 1.37037 5.35187 14.52537 9.2188 21.84375 7.96875 6.96281.19429 9.54468-4.42801 11.125-8.125 7.16475.071 14.29811 2.12801 20.125 4.40625-5.72896-6.25038-12.74094-9.03727-20.125-9.71875-3.3858-5.51028-6.83771-5.8953-12.125-6.59375-.0898-.0194-.19574-.0485-.28125-.0625-.0777-.00091-.17051.00008-.25 0-.009-.004-.0226.004-.0312 0z" transform="matrix(-.94276469 .33345876 .33345876 .94276469 1147.26031 -67.799784)"/><path d="m578.5 156.34375c-7.40689.002-22.46378 3.60126-20.28125 12.125 1.37037 5.35187 14.52537 9.2188 21.84375 7.96875 6.96281.19429 9.54468-4.42801 11.125-8.125 7.16475.071 14.29811 2.12801 20.125 4.40625-5.72896-6.25038-12.74094-9.03727-20.125-9.71875-3.3858-5.51028-6.83771-5.8953-12.125-6.59375-.0898-.0194-.19574-.0485-.28125-.0625-.0777-.00091-.17051.00008-.25 0-.009-.004-.0226.004-.0312 0z" transform="matrix(-.9355541 -.35318342 -.35318342 .9355541 1149.465632 509.187092)"/><path d="m341.1073 487.16427c-4.42969 0-8.83589-.0794-13.21666-.23715-157.04726-5.65506-281.37395-111.99657-281.37395-270.35052 0-109.17253 59.36406-204.404206 147.52407-255.308886l-5.03295-8.633c-91.163178 52.6387499-152.491645 151.161866-152.491645 263.941886 0 163.36508 129.221165 274.14494 290.353605 280.31712 4.71929.18077 9.46594.27181 14.23753.27181 7.84303 0 24.02681 5.22462 35.32914 9.89602 21.13875 8.73693 59.86209 33.54341 59.86209 33.54341s9.09819 3.76881 19.09393 0c6.21721-2.34413 13.93344-7.22473 13.93344-7.22473-1.42533-2.13782-4.21578-3.15358-15.76869-6.1508-9.78898-2.53959-21.4303-10.29083-35.32052-16.03946-11.5231-4.76898-23.2287-11.63479-35.09157-15.48157-13.60185-4.41068-30.92289-8.54413-42.03782-8.54413z" transform="matrix(-1 0 0 1 682.69189 8)"/><path d="m544.29126 27.931371c-4.74652-4.81313 7.84758-1.617263 8.14387-7.609326-8.00614-3.036825-22.71284-1.86396-23.36146-9.080928 1.05968-4.4932956 6.95928 1.597501 7.10671-7.0066291-5.87045-5.2857073-10.64185-4.83948378-15.94272-14.6819649 2.62009-5.374768 8.21996 2.5093968 11.20102-5.277329-1.44338-4.398814-7.32702-11.3426-4.86419-16.299446 2.94534-2.347958 6.71724 3.769971 7.89897.490882 1.43695-3.987254-2.51552-12.079324 1.09358-12.807849 4.58671.271889 9.54013 6.634648 10.85495 10.889026 1.96821 2.413347 7.16105-7.194125 10.11913-1.985923 3.78756 6.668599.29058 11.893709 2.57691 20.896352 5.35897 6.0454526 7.55803-10.404649 11.39162-4.161381 4.49131 7.314397-.15858 14.6786837-.20126 22.5809164 4.09077 4.6366948 7.24446-6.2381523 11.33519-.702791.18764 10.1750516 1.65488 21.0897156-3.89573 30.1892266-18.88377 3.463248-29.56664-3.347808-33.45659-5.432836z" transform="matrix(.96258124 -.27099328 .27099328 .96258124 -55.48106 97.827095)"/><path d="m544.15666 27.856736c-4.7465-4.813133 7.8476-1.617263 8.14388-7.609329-8.00612-3.036825-22.71283-1.86396-23.36145-9.080928 1.05969-4.4932942 6.95928 1.597503 7.10673-7.0066277-5.87047-5.2857073-10.64188-4.83948386-15.94275-14.6819643 2.6201-5.374767 8.21996 2.5093962 11.20102-5.27733-1.44336-4.398814-7.327-11.3426-4.86416-16.299445 2.94533-2.347958 6.71722 3.76997 7.89895.490881 1.43695-3.987254-2.51552-12.079323 1.09358-12.807848 4.58672.271888 9.54015 6.634648 10.85495 10.889027 1.96821 2.413345 7.16104-7.194127 10.11914-1.985925 3.78754 6.668598.29056 11.893709 2.57689 20.896352 5.35899 6.045453 7.55803-10.404649 11.39164-4.161381 4.49131 7.314398-.15859 14.6786841-.20126 22.5809169 4.09075 4.6366947 7.24444-6.2381525 11.33519-.7027911.18762 10.1750512 1.65486 21.0897162-3.89575 30.1892262-18.88374 3.463249-29.56663-3.347808-33.4566-5.432834z" transform="translate(.468857 8)"/><path d="m544.14853 27.927115c-4.74652-4.813131 7.84758-1.617262 8.14387-7.609327-8.00614-3.036825-22.71284-1.86396-23.36144-9.080929 1.05966-4.4932939 6.95927 1.597502 7.10671-7.0066274-5.87046-5.2857073-10.64188-4.83948377-15.94275-14.6819646 2.6201-5.374768 8.21998 2.5093965 11.20105-5.277328-1.44339-4.398814-7.32703-11.342602-4.86419-16.299448 2.94533-2.347956 6.71723 3.769972 7.89895.490882 1.43696-3.987253-2.51552-12.079323 1.09359-12.807847 4.58672.271888 9.54014 6.634648 10.85495 10.889026 1.96821 2.413345 7.16105-7.194126 10.11913-1.985925 3.78755 6.668599.29056 11.89371 2.57691 20.896352 5.35897 6.0454534 7.55803-10.404649 11.39162-4.16138 4.49131 7.314398-.1586 14.6786835-.20126 22.5809163 4.09076 4.6366946 7.24445-6.2381524 11.33519-.7027912.18764 10.1750509 1.65486 21.0897159-3.89574 30.1892259-18.88377 3.46325-29.56663-3.347807-33.45659-5.432835z" transform="matrix(.95115687 .30870796 -.30870796 .95115687 92.151136 -60.384073)"/><path d="m578.5 156.34375c-7.40689.002-22.46378 3.60126-20.28125 12.125 1.37037 5.35187 14.52537 9.2188 21.84375 7.96875 6.96281.19429 9.54468-4.42801 11.125-8.125 7.16475.071 14.29811 2.12801 20.125 4.40625-5.72896-6.25038-12.74094-9.03727-20.125-9.71875-3.3858-5.51028-6.83771-5.8953-12.125-6.59375-.0898-.0194-.19574-.0485-.28125-.0625-.0777-.00091-.17051.00008-.25 0-.009-.004-.0226.004-.0312 0z" transform="matrix(-.71108217 .70310891 .70310891 .71108217 950.713451 -357.414944)"/><path d="m544.16046 28.044298c-4.74651-4.813132 7.84758-1.617262 8.14387-7.609327-8.00614-3.036825-22.71284-1.86396-23.36145-9.080929 1.05967-4.4932944 6.95928 1.597503 7.10671-7.006628-5.87046-5.28570734-10.64186-4.83948379-15.94273-14.681964 2.62011-5.374768 8.21996 2.509396 11.20103-5.27733-1.44339-4.398813-7.32702-11.342601-4.86419-16.299447 2.94535-2.347955 6.71723 3.769973 7.89896.490883 1.43696-3.987254-2.51551-12.079323 1.09358-12.807847 4.58671.271888 9.54015 6.634647 10.85495 10.889026 1.96822 2.413345 7.16105-7.194126 10.11913-1.985925 3.78758 6.668599.29058 11.89371 2.57693 20.896352 5.35897 6.0454527 7.55801-10.404649 11.39161-4.161381 4.4913 7.314398-.15859 14.6786837-.20125 22.5809166 4.09075 4.6366946 7.24444-6.2381524 11.33517-.7027911.18764 10.1750515 1.65488 21.0897165-3.89573 30.1892265-18.88376 3.463248-29.56664-3.347807-33.45659-5.432835z" transform="matrix(.79063718 .61228494 -.61228494 .79063718 198.38744 -107.80864)"/><path d="m544.29372 27.995035c-4.74652-4.813131 7.84759-1.617264 8.14387-7.609327-8.00614-3.036825-22.71284-1.86396-23.36147-9.080928 1.05969-4.4932955 6.95929 1.5975 7.10673-7.006629-5.87047-5.28570735-10.64187-4.8394838-15.94274-14.681965 2.62011-5.374767 8.21997 2.509397 11.20102-5.277328-1.44336-4.398815-7.32701-11.3426-4.86417-16.299447 2.94534-2.347957 6.71722 3.769972 7.89896.490882 1.43694-3.987254-2.51552-12.079324 1.09358-12.807849 4.58671.271889 9.54015 6.634649 10.85494 10.889026 1.96822 2.413348 7.16106-7.194125 10.11914-1.985923 3.78756 6.6686.29058 11.893709 2.57692 20.896352 5.35897 6.0454528 7.55801-10.404649 11.39162-4.161381 4.4913 7.314398-.15859 14.6786839-.20126 22.5809167 4.09075 4.6366946 7.24444-6.2381524 11.33518-.7027912.18764 10.1750515 1.65487 21.0897165-3.89573 30.1892265-18.88376 3.463249-29.56664-3.347808-33.45659-5.432835z" transform="matrix(.46352196 .88608544 -.88608544 .46352196 361.20452 -158.98377)"/><path d="m544.29353 27.946987c-4.74651-4.813131 7.84759-1.617263 8.14387-7.609328-8.00615-3.036825-22.71283-1.863959-23.36144-9.080929 1.05967-4.4932936 6.95927 1.597503 7.10671-7.0066272-5.87045-5.2857072-10.64188-4.83948366-15.94274-14.6819648 2.62011-5.374767 8.21998 2.5093969 11.20103-5.277329-1.44337-4.398813-7.32702-11.3426-4.86419-16.299445 2.94535-2.347958 6.71724 3.76997 7.89897.490881 1.43696-3.987254-2.51552-12.079324 1.09359-12.807848 4.58671.271887 9.54012 6.634648 10.85493 10.889026 1.96823 2.413346 7.16105-7.194125 10.11916-1.985924 3.78755 6.668598.29055 11.893708 2.5769 20.89635 5.35897 6.0454548 7.55801-10.404647 11.3916-4.161378 4.49133 7.314397-.15858 14.6786827-.20125 22.5809154 4.09076 4.6366947 7.24446-6.2381522 11.3352-.7027911.18762 10.1750517 1.65486 21.0897157-3.89574 30.1892277-18.88378 3.463248-29.56665-3.34781-33.4566-5.432836z" transform="matrix(-.95302892 -.30287933 -.30287933 .95302892 1098.919 579.82914)"/><path d="m544.29515 28.024936c-4.74652-4.81313 7.84759-1.617263 8.14386-7.609326-8.00613-3.036825-22.71284-1.86396-23.36145-9.080929 1.05968-4.4932947 6.95929 1.597502 7.10673-7.0066284-5.87047-5.2857073-10.64189-4.83948376-15.94275-14.6819646 2.6201-5.374768 8.21997 2.5093966 11.20103-5.277329-1.44338-4.398815-7.32702-11.342601-4.86417-16.299447 2.94532-2.347957 6.71721 3.769972 7.89895.490883 1.43695-3.987255-2.51552-12.079325 1.09358-12.807848 4.58671.271888 9.54015 6.634649 10.85495 10.889025 1.96822 2.413347 7.16103-7.194125 10.11914-1.985923 3.78755 6.668598.29057 11.893709 2.5769 20.896352 5.35898 6.0454525 7.55802-10.404649 11.39162-4.161381 4.49131 7.314397-.15858 14.6786834-.20125 22.5809163 4.09075 4.6366946 7.24444-6.2381525 11.33518-.7027912.18764 10.1750509 1.65487 21.0897159-3.89574 30.1892269-18.88375 3.463248-29.56662-3.347808-33.45658-5.432836z" transform="matrix(-.82966024 -.55826866 -.55826866 .82966024 939.67949 779.48158)"/><path d="m578.5 156.34375c-7.40689.002-22.46378 3.60126-20.28125 12.125 1.37037 5.35187 14.52537 9.2188 21.84375 7.96875 6.96281.19429 9.54468-4.42801 11.125-8.125 7.16475.071 14.29811 2.12801 20.125 4.40625-5.72896-6.25038-12.74094-9.03727-20.125-9.71875-3.3858-5.51028-6.83771-5.8953-12.125-6.59375-.0898-.0194-.19574-.0485-.28125-.0625-.0777-.00091-.17051.00008-.25 0-.009-.004-.0226.004-.0312 0z" transform="translate(-11.933218 -97.09644)"/></g></g><path d="m267.34047 457.60467c13.02385.10896 24.86501 7.36016 35.44461 14.50993 3.88256 2.62387 13.93752 12.56627 18.60294 17.9538 3.79459 4.38191 4.27066 2.58629 8.7337 6.26213l9.21875-.53125-5.7467-7.71545s-3.88422-5.98992-8.71544-11.70554c-4.8312-5.71562-10.17017-11.97914-15.91286-15.8783-6.77739-4.6017-13.36832-10.12706-23.63668-12.96544-5.13418-1.41919-12.98342-2.43724-18.52287-1.56581-6.94669 1.09281-10.43915 3.38946-13.71215 7.51804-2.73736 3.45292-3.26926 7.77067-2.7533 11.625s4.625 10.3125 4.625 10.3125c.11119.22239-3.54661-17.95281 12.375-17.81961z" stroke-width="3.5" transform="matrix(.29732267 0 0 .29732267 481.14229 336.01686)"/><path d="m580.31209 484.08082c-4.02341 5.50532-6.05424 7.09218-11.69329 8.39136l-4.59153-2.31378c6.3342-.75612 10.98886-3.11261 15.03813-7.71385z" stroke-width="1.040629"/></g><g transform="matrix(.29732267 0 0 .29732267 480.64829 336.01686)"><g id="a" fill="#f6b721" stroke-width="3.5" transform="translate(-.722687 8)"><path d="m157.71875 57.9375c-4.72344 0-8.5625 3.807814-8.5625 8.53125 0 3.39497 2.00846 6.33751 4.875 7.71875.44975 10.195645-3.66044 21.637829-7.625 29.875 12.55983-6.613013 19.69986-21.745902 18.71875-33.28125.73591-1.263121 1.15625-2.745257 1.15625-4.3125 0-4.723436-3.83906-8.53125-8.5625-8.53125z" fill="#f6b721" stroke="#000" stroke-width="3.5" transform="translate(-11.210531 -105.09644)"/></g><use id="b" fill="#f6b721" height="843.85223" stroke-width="3.5" transform="matrix(.90126017 -.43327832 .43327832 .90126017 -53.713387 147.50046)" width="853.95062" xlink:href="#h"/><use id="c" fill="#f6b721" height="843.85223" stroke-width="3.5" transform="matrix(.89785527 -.44029071 .44029071 .89785527 -70.980709 152.25289)" width="853.95062" xlink:href="#g"/><use id="d" fill="#f6b721" height="843.85223" stroke-width="3.5" transform="matrix(.86591706 .50018762 .50018762 -.86591706 -234.87705 743.16656)" width="853.95062" xlink:href="#e"/><use fill="#f6b721" height="843.85223" stroke-width="3.5" transform="matrix(.84851394 .52917303 -.52917303 .84851394 198.57367 -73.312539)" width="853.95062" xlink:href="#d"/><use fill="#f6b721" height="843.85223" stroke-width="3.5" transform="translate(69.806337 -45.948475)" width="853.95062" xlink:href="#h"/><use id="e" fill="#f6b721" height="843.85223" stroke-width="3.5" transform="matrix(.96825335 -.24997089 .24997089 .96825335 -14.835058 104.19758)" width="853.95062" xlink:href="#f"/><use id="f" fill="#f6b721" height="843.85223" stroke-width="3.5" transform="matrix(.61156637 -.79119313 .79119313 .61156637 -144.01275 249.42286)" width="853.95062" xlink:href="#c"/><use id="g" fill="#f6b721" height="843.85223" stroke-width="3.5" transform="matrix(.97244823 -.23311892 .23311892 .97244823 -47.445221 116.58377)" width="853.95062" xlink:href="#b"/><use id="h" fill="#f6b721" height="843.85223" stroke-width="3.5" transform="matrix(.25081873 -.96803407 -.96803407 -.25081873 109.73175 136.43872)" width="853.95062" xlink:href="#a"/><use id="i" fill="#f6b721" height="843.85223" stroke-width="3.5" transform="matrix(.83789825 -.54582646 .54582646 .83789825 -112.54022 183.59846)" width="853.95062" xlink:href="#j"/><use id="j" fill="#f6b721" height="843.85223" stroke-width="3.5" transform="matrix(.95922479 -.28264429 .28264429 .95922479 -33.016421 125.66411)" width="853.95062" xlink:href="#l"/><use id="k" fill="#f6b721" height="843.85223" stroke-width="3.5" transform="matrix(.95922479 -.28264429 .28264429 .95922479 -37.886783 132.46552)" width="853.95062" xlink:href="#m"/><use id="l" fill="#f6b721" height="843.85223" stroke-width="3.5" transform="matrix(.92657539 -.37610907 .37610907 .92657539 -60.697331 139.5307)" width="853.95062" xlink:href="#q"/><use id="m" fill="#f6b721" height="843.85223" stroke-width="3.5" transform="matrix(.92000738 -.39190101 .39190101 .92000738 -60.940791 143.21461)" width="853.95062" xlink:href="#p"/><use id="n" fill="#f6b721" height="843.85223" stroke-width="3.5" transform="matrix(.97493181 .22250386 -.22250386 .97493181 13.059101 -16.101869)" width="853.95062" xlink:href="#v"/><use id="o" fill="#f6b721" height="843.85223" stroke-width="3.5" transform="matrix(.96572734 -.25955868 .25955868 .96572734 -12.283693 28.919047)" width="853.95062" xlink:href="#u"/><use id="p" fill="#f6b721" height="843.85223" stroke-width="3.5" transform="matrix(.89601103 -.44403181 .44403181 .89601103 -57.632138 141.11159)" width="853.95062" xlink:href="#o"/><use id="q" fill="#f6b721" height="843.85223" stroke-width="3.5" transform="matrix(.935861 -.3523694 .3523694 .935861 -57.715789 132.38253)" width="853.95062" xlink:href="#n"/><use fill="#f6b721" height="843.85223" stroke-width="3.5" transform="matrix(.69369033 .72027337 -.72027337 .69369033 38.039171 -117.87959)" width="853.95062" xlink:href="#r"/><use id="r" fill="#f6b721" height="843.85223" stroke-width="3.5" transform="matrix(.92483019 -.38038023 .38038023 .92483019 16.015791 59.747831)" width="853.95062" xlink:href="#t"/><use id="s" fill="#f6b721" height="843.85223" stroke-width="3.5" transform="matrix(.83789825 -.54582646 .54582646 .83789825 -115.11322 174.59296)" width="853.95062" xlink:href="#k"/><use fill="#f6b721" height="843.85223" stroke-width="3.5" transform="matrix(.9530074 -.30294703 .30294703 .9530074 -36.495973 111.83421)" width="853.95062" xlink:href="#i"/><use fill="#f6b721" height="843.85223" stroke-width="3.5" transform="matrix(.98321103 -.18247211 .18247211 .98321103 3.740703 78.405616)" width="853.95062" xlink:href="#s"/><path d="m341.1073 487.16427c-4.42969 0-8.8359-.0794-13.21665-.23715-157.04726-5.65506-281.37396-111.99657-281.37396-270.35052 0-109.17253 59.36406-204.404206 147.52408-255.308886l-5.03295-8.633c-91.163188 52.6387499-152.491655 151.161866-152.491655 263.941886 0 163.36508 129.221165 274.14494 290.353605 280.31712 4.71928.18077 9.46594.27181 14.23753.27181 7.84302 0 24.02682 5.22462 35.32914 9.89602 21.13876 8.73693 59.86209 33.54341 59.86209 33.54341s9.09818 3.76881 19.09394 0c6.21719-2.34413 13.93342-7.22473 13.93342-7.22473-1.42531-2.13782-4.21577-3.15358-15.76869-6.1508-9.78897-2.53959-21.4303-10.29083-35.32051-16.03946-11.5231-4.76898-23.22871-11.63479-35.09157-15.48157-13.60185-4.41068-30.92288-8.54413-42.03782-8.54413z" fill="#f6b721" stroke="#000" stroke-width="3.5" transform="translate(-.722687 8)"/><g id="t" fill="#f6b721" stroke-width="3.5" transform="translate(-.722687 6.332316)"><path d="m194.70753-57.094689c20.05726-12.641269 45.87367-10.00536 45.87367-10.00536s-9.61013 22.119882-34.93402 34.93402c-13.74609 6.955657-32.10542 4.17489-32.10542 4.17489-.32349-9.672235 11.96317-23.30353 21.16577-29.10355z" fill="#f6b721" stroke="#000" stroke-width="3.5"/></g><use id="u" fill="#f6b721" height="843.85223" stroke-width="3.5" transform="matrix(.82991923 -.55788357 .55788357 .82991923 -35.301683 159.12383)" width="853.95062" xlink:href="#t"/><use id="v" fill="#f6b721" height="843.85223" stroke-width="3.5" transform="matrix(.9994117 -.03429663 .03429663 .9994117 -70.827969 79.217109)" width="853.95062" xlink:href="#t"/><use id="w" fill="#f6b721" height="843.85223" stroke-width="3.5" transform="matrix(.935861 -.3523694 .3523694 .935861 -58.503389 133.57376)" width="853.95062" xlink:href="#v"/><use id="x" fill="#f6b721" height="843.85223" stroke-width="3.5" transform="matrix(.94785832 -.31869202 .31869202 .94785832 -56.627288 129.13375)" width="853.95062" xlink:href="#u"/><use id="y" fill="#f6b721" height="843.85223" stroke-width="3.5" transform="matrix(.92657539 -.37610907 .37610907 .92657539 -61.521791 134.97351)" width="853.95062" xlink:href="#x"/><use id="z" fill="#f6b721" height="843.85223" stroke-width="3.5" transform="matrix(.92657539 -.37610907 .37610907 .92657539 -60.969867 137.73313)" width="853.95062" xlink:href="#w"/><use id="A" fill="#f6b721" height="843.85223" stroke-width="3.5" transform="matrix(.93620555 -.35145292 .35145292 .93620555 -50.497327 136.53454)" width="853.95062" xlink:href="#y"/><use id="B" fill="#f6b721" height="843.85223" stroke-width="3.5" transform="matrix(.94858098 -.31653453 .31653453 .94858098 -43.095959 130.86596)" width="853.95062" xlink:href="#z"/><use id="C" fill="#f6b721" height="843.85223" stroke-width="3.5" transform="matrix(.83789825 -.54582646 .54582646 .83789825 -115.75647 179.09571)" width="853.95062" xlink:href="#B"/><use id="D" fill="#f6b721" height="843.85223" stroke-width="3.5" transform="matrix(.84885067 -.52863271 .52863271 .84885067 -110.60068 174.65585)" width="853.95062" xlink:href="#A"/><g fill="#f6b721" stroke-width="3.5"><use height="843.85223" transform="matrix(.98321103 -.18247211 .18247211 .98321103 5.670452 75.832617)" width="853.95062" xlink:href="#D"/><use height="843.85223" transform="matrix(.95253976 -.3044142 .3044142 .95253976 -39.320298 110.35181)" width="853.95062" xlink:href="#C"/><g stroke="#000"><path d="m224.54139 523.20859c3.71709-9.45411 10.87532-15.81118 21.26298-19.26176-14.5769-9.03742-41.66736-.0931-21.26298 19.26176z"/><path d="m219.34378 504.64964s9.9197-3.02706 18.10629 0c9.13591 3.37808 15.06597 15.77312 23.68111 20.31795 7.88271 4.15845 15.72324 6.47904 24.60232 5.70983 13.992-1.21215 28.06304-6.72478 35.59751-16.22021-9.93751 4.33045-20.28717 5.2798-29.9393 2.26329-13.99399-4.37344-24.96239-16.74612-37.72143-19.99236-5.11795-1.30214-9.99358-2.09987-15.843-1.25076-11.03664 1.6021-18.4835 9.17226-18.4835 9.17226z"/></g></g></g><g stroke="#000"><path d="m616.72172 491.57863c-1.10518-2.81092-3.23348-4.70102-6.32197-5.72695 4.33404-2.68703 12.38865-.0277 6.32197 5.72695z" stroke-width="1.040629"/><path d="m267.34047 457.60467c13.02385.10896 24.86501 7.36016 35.44461 14.50993 3.88256 2.62387 13.93752 12.56627 18.60294 17.9538 3.79459 4.38191 4.27066 2.58629 8.7337 6.26213l9.21875-.53125-5.7467-7.71545s-3.88422-5.98992-8.71544-11.70554c-4.8312-5.71562-10.17017-11.97914-15.91286-15.8783-6.77739-4.6017-13.36832-10.12706-23.63668-12.96544-5.13418-1.41919-12.98342-2.43724-18.52287-1.56581-6.94669 1.09281-10.43915 3.38946-13.71215 7.51804-2.73736 3.45292-3.26926 7.77067-2.7533 11.625s4.625 10.3125 4.625 10.3125c.11119.22239-3.54661-17.95281 12.375-17.81961z" stroke-width="3.5" transform="matrix(-.29732267 0 0 .29732267 682.98897 336.01686)"/><path d="m583.81917 484.08082c4.0234 5.50532 6.05423 7.09218 11.69328 8.39136l4.59153-2.31378c-6.3342-.75612-10.98886-3.11261-15.03813-7.71385z" stroke-width="1.040629"/><path d="m618.26708 486.06064s-2.94935-.90002-5.38341 0c-2.71631 1.00438-4.47945 4.6897-7.04093 6.04099-2.3437 1.2364-4.67487 1.92636-7.31482 1.69766-4.16014-.3604-8.34378-1.99943-10.58395-4.82264 2.95465 1.28754 6.03183 1.56981 8.90163.67293 4.16073-1.30032 7.42189-4.979 11.21544-5.94418 1.52168-.38716 2.97132-.62434 4.71048-.37188 3.28144.47634 5.49556 2.72712 5.49556 2.72712z" stroke-width="1.040629"/><path d="m450.39578 688.39085c-1.80911 11.60462-3.60794 19.48346-.18988 30.66731-6.65585 2.80642-8.16324 3.65444-14.62767 0-2.17549 2.85874-9.28041 4.09877-11.90623 0-5.05647-13.43856-2.83049-27.15205 1.21043-30.66731 6.70725-4.42279 16.07635-4.57938 25.51335 0z" stroke-width="3.5" transform="matrix(.29732267 0 0 .29732267 452.560193 273.184928)"/></g></g><g transform="matrix(.29732267 0 0 .29732267 422.673118 237.794715)"><g transform="matrix(.88589821 0 0 .88589821 59.304729 -35.612069)"><path d="m67.96957 273.71106s-5.750593-62.16949 6.631178-100.29656c8.544741-26.31174 21.74912-47.89461 43.102662-65.48288 33.35081-27.470069 84.87069-34.725978 121.01898-18.235733-31.65972 1.65791-74.0263 12.343173-96.98096 31.498093-17.59231 14.68022-31.33414 35.31184-38.12928 57.1939-11.554763 37.2093-5.80228 96.98098-5.80228 96.98098z" fill="#f6b721" stroke="#000" stroke-width="3.99"/><path d="m90.53125 172.0625c-10.688281 32.25441-10.692792 67.84269-9.625 98.40625l3.96875-.15625c-1.063432-30.43879-.813124-65.51349 9.46875-97 10.28187-31.48651 30.42645-59.36544 69.71875-75.96875-46.90046 10.54983-68.02059 58.08903-73.53125 74.71875z"/></g><g fill="#f6b721" stroke="#000"><path d="m119.31277 201.85393h25.266426v56.658432h-25.266426z" stroke-width="3.537166"/><g stroke-width=".7" transform="matrix(5.2941999 0 0 4.822969 -1068.4839 -764.28781)"><path d="m284.08935 342.61785c-2.86723-.87932-5.47712.45833-11.2155-8.02761 0 0-2.50828.84229-3.81275.89712-.67958.0286-1.37852-.0687-2.01852-.29904-1.17824-.42403-3.21468-1.94376-3.21468-1.94376l-.52332-4.93416s-1.03623-.18273-1.34568-.67284c-.26609-.42143-.26861-1.07538 0-1.4952.3846-.60109.97951-.74447 1.71948-.97188 1.38179-.42466 2.92636-.39478 4.33608-.0748 1.24983.28369 2.2214.94555 3.43896 1.34568 3.74811 1.23175 11.66255 2.01852 11.66255 2.01852z" transform="translate(-38.245434 -121.29877)"/><path d="m224.08727 211.04867s1.92253.0216 2.84088-.0748c.66733-.07 1.22781-.45633 1.94376-.14952.42606.18258.82236 1.1214.82236 1.1214s-.6457.85914-1.1214 1.04664c-1.32149.52088-3.15024.63242-4.33608-.14952-.31688-.20895-.44394-.6671-.44856-1.04664-.003-.26836.29904-.74756.29904-.74756z"/><path d="m224.01251 209.17967s1.92253.0216 2.84088-.0748c.66733-.07 1.60161-.60585 2.31756-.29904.42606.18258.82236 1.1214.82236 1.1214s-.6457.85914-1.1214 1.04664c-1.32149.52088-3.52404.78194-4.70988 0-.31688-.20895-.44394-.6671-.44856-1.04664-.003-.26836.29904-.74756.29904-.74756z"/><path d="m262.25794 328.38516s1.92253.0216 2.84088-.0748c.66733-.07 1.60161-.60585 2.31756-.29904.42606.18258.82236 1.1214.82236 1.1214s-.6457.85914-1.1214 1.04664c-1.32149.52088-3.52404.78194-4.70988 0-.31688-.20895-.44394-.6671-.44856-1.04664-.003-.26836.29904-.74756.29904-.74756z" transform="translate(-38.245434 -121.29877)"/></g><g stroke-width="3.537166"><path d="m146.93376 209.25902h13.09974l8.20822-5.50619-8.17063-5.61673h-13.09964l-14.53954-4.60199-14.53955 4.60203h-14.07144l-8.170637 5.61674 8.208227 5.50619h14.07154l14.50186 5.30608z"/><path d="m357.74842 44.604398c-2.10755 0-4.2117.05741-6.31203.138421l1.93791 113.644131-16.88744-75.716615c-4.39444.718614-8.7368 1.651287-13.01163 2.796116l21.62145 77.571459-46.62039-107.525892c-4.32865 1.629361-8.5849 3.430614-12.76247 5.398442l51.43746 108.16263-47.70008-69.266162c-3.73075 2.216522-7.33755 4.609482-10.82457 7.170242l45.62376 59.54897-81.58569-76.740935c-3.2658 3.008483-6.39774 6.177678-9.41267 9.440352l87.0395 76.796303-69.04469-41.83101c-2.44922 3.32134-4.73101 6.76166-6.83802 10.32625l82.00095 44.59944 3.15601-4.95549 1.46727 1.35653 6.78266-6.20129 3.32212-2.10401v.16611l7.28097-2.71306v.13842l6.28434-1.49495h6.28434l6.45045 1.49495v-.13842l7.28098 2.71306v-.16611l3.32211 2.10401 6.78268 6.20129 1.46722-1.35653 2.32549 3.76507-1.66106.60905 3.48822 7.83466 1.99327 7.66856 93.96058-16.88744c-.59816-4.03637-1.38926-8.00127-2.38085-11.87657l-92.07804 20.79093 122.80763-44.26723c-1.46766-4.02067-3.09116-7.94795-4.87244-11.79352l-109.85137 43.38133 71.28716-38.75805c-2.10294-3.56449-4.36517-7.0333-6.81034-10.35393l-68.93395 41.74795 86.9564-76.71325c-2.99903-3.248225-6.13706-6.389053-9.38494-9.384984l-81.53037 76.740934 45.51302-59.60434c-3.46979-2.54939-7.05804-4.96143-10.76915-7.170239l-43.02143 62.455819-1.16275-.60905 47.92152-100.770922c-4.19978-1.980035-8.49338-3.759849-12.84553-5.398442l-44.01804 101.490714-.66442-.3599 19.82194-71.148696c-4.30263-1.16081-8.67143-2.121186-13.09465-2.851485l-15.64164 69.349221 1.96558-107.249052c-2.61476-.125124-5.23641-.19379-7.86234-.19379z"/><path d="m357.74386 143.89938c-36.65249 0-66.81128 27.08637-66.81128 60.86124 0 33.77491 30.13099 61.02102 66.81128 61.02102 36.68032 0 66.97954-27.21842 66.97954-61.02102s-30.32713-60.86124-66.97954-60.86124z"/></g></g><g stroke-width=".7" transform="matrix(5.2941999 0 0 4.822969 -1066.4839 -776.28781)"><path d="m272.20824 225.5512c-1.50508 2.75432.58326 5.21568-.55151 7.3223 0 0-2.41248-.47442-3.66393-.53488-.86925-.042-2.14935-.0422-2.89316.33453-1.32431.6708-2.46948 1.58389-3.07084 2.60213-1.09622 1.85615.2427 3.57143 2.22225 2.66033 1.77027 1.78695 3.85571.64312 6.41004-.33452.52339-.20033 1.29213.0158 1.93307.1599.6707.15082 1.42945.26839 2.06234 0 1.50576-.63854 2.52579-2.52052 3.48042-5.53992l1.48354.68314c.0159-1.29106-.5073-2.27545-1.19092-3.16853l1.77042.65351c.0109-1.28424-.56078-2.22564-1.14425-2.93285l1.7044.69108s-.14189-.66861-.16981-1.65848c-.0181-.6415.1213-1.58168.007-2.0076-.19743-.73539-.46049-1.02883-.62849-1.56545-.13463-.43003-.30167-1.31776-.30167-1.31776-5.13018-2.46728-4.02424-8.28059-3.08242-10.74179l-9.76798 7.3942c-1.97356 1.41062.73686 6.48258 5.3915 7.30066z" fill="#f6b721" stroke="#000" stroke-width=".7"/><path d="m272.40676 220.67318c-.68562-.27814-1.7083-.89304-1.93333-1.98507l.74279-1.70276c-.32428 1.92099.85008 3.32571 1.19057 3.68784zm-1.12139 1.03514c-.68562-.27814-1.7083-.89304-1.93333-1.98507l.74279-1.70276c-.32428 1.92099.85008 3.32571 1.19057 3.68784zm-.94227 1.22056c-.68562-.27814-1.7083-.89304-1.93333-1.98507l.74279-1.70276c-.32428 1.92099.85008 3.32571 1.19057 3.68784zm-1.20337 11.42394s-1.47592-.0869-2.34375.0625c-.57415.0988-1.14008.32555-1.625.6875-.55508.41433-1.22393.94445-1.40625 1.75-.0808.35719.0158.72052.0937 1 .078.27948.15625.5.15625.5l.65625-.28125s-.0923-.17697-.15625-.40625c-.064-.22928-.0914-.52873-.0625-.65625.11338-.50097.6066-.9568 1.125-1.34375 1.23459-1.06744 2.43008-.74771 3.56245-1.3125zm5.11862-.28264c.52029-.7686 1.4076-1.64722 1.71761-2.71511.31001-1.06788.419-2.19092.0695-3.09801-.66846.31716-2.0332 5.60245-1.78715 5.81312zm3.75025-8.50358c-.17351 1.08824-1.79049 1.05711-2.49103.78235-.70056-.27477-1.22384-1.21134-.87231-2.08911.27846 1.19782 2.03051 1.75181 3.36334 1.30676zm.25878-2.67409c-.17351 1.08824-1.79049 1.05711-2.49103.78235-.70056-.27477-1.22384-1.21134-.87231-2.08911.27846 1.19782 2.03051 1.75181 3.36334 1.30676z"/><path d="m340.73636 301.85909c.29825 1.48977-.29861 2.51282-1.08006 2.92216-1.17519.61559-2.26715.2019-3.25-.71875-1.27722-1.19639-2.1417-2.79068-3.28125-3.84375-1.44529-1.33561-3.18679-1.69309-4.6875-1.59375-1.50071.0993-2.84586.77736-3.8125 1.84375-1.93327 2.13278-2.43063 5.95071-.40625 9.09116 1.90597 2.95677 7.6382 5.05755 9.8125 6.8444 1.95248 1.60456 2.81385 2.66447 3.1875 3.84569s.51893 2.68009-.0625 4.125c-.69911 1.73735-2.36286 2.48426-4.84634 2.53726-3.2996.0704-6.41236-2.9906-9.59767-3.50413-5.96396-.96149-7.65835 1.58444-13.19974 1.65623-10.97636.1422-15.45625-3.5-15.45625-3.5l-11.9 15.12314c-3.63546 1.48959-3.8264 6.97888 0 9.9375-1.09401.68764-2.17669 2.11624-2.65625 3.3125-.60345 1.50531-1.09751 2.43956-1.84375 3.53125 0 0-2.4048-.47075-3.65625-.53125-.86925-.042-2.16244-.033-2.90625.34375-1.32431.6708-2.46114 1.57551-3.0625 2.59375-1.09622 1.85615.2392 3.56735 2.21875 2.65625 1.77027 1.78695 3.85192.66514 6.40625-.3125.52339-.20033 1.29656.0122 1.9375.15625.6707.15082 1.43675.28463 2.0625 0 1.47165-.6694 2.13702-2.38989 3.1875-3.59375.49543-.56776 1.46875-1.71875 1.46875-1.71875l.96875 1.34375c.65225-1.1143.68377-2.22945.53125-3.34375l1.21875 1.4375c.64454-1.11084.59489-2.22178.4375-3.125l1.15625 1.4375s.191-.62584.65625-1.5c.30152-.56651.88875-1.32326 1-1.75.1921-.73681.25-1.6875.25-1.6875.66734.63796 1.17431.97004 2.03125.84375.12221-1.33456.21101-1.73881.53125-2.28125 4.24825-.2249 8.2026-.96971 11.78125-2.46875 2.70298-1.13224 5.21025-2.68061 7.4375-4.75.58131-.54011 1.04831-.82578 1.59375-1.4375.5361-.60124 2.75568-.29644 3.875.15625.54049.2186 1.21875 1.125 1.21875 1.125.89733 2.50896 3.01412 8.49702 8.84375 9.78125-1.50508 2.75432.57227 5.23713-.5625 7.34375 0 0-2.4048-.502-3.65625-.5625-.86925-.042-2.13119-.033-2.875.34375-1.32431.6708-2.49239 1.57551-3.09375 2.59375-1.09622 1.85615.2392 3.5986 2.21875 2.6875 1.77027 1.78695 3.85192.63389 6.40625-.34375.52339-.20033 1.29656.0122 1.9375.15625.6707.15082 1.42961.26839 2.0625 0 1.50576-.63854 2.54537-2.51185 3.5-5.53125l1.46875.65625c.0159-1.29106-.50388-2.26317-1.1875-3.15625l1.78125.65625c.0109-1.28424-.57278-2.23029-1.15625-2.9375l1.71875.6875s-.1596-.66638-.1875-1.65625c-.0181-.6415.1143-1.57408 0-2-.19743-.73539-.457-1.02588-.625-1.5625-.13463-.43003-.28125-1.3125-.28125-1.3125-3.07092-1.55605-3.74935-4.11982-3.78125-6.4375-.0421-3.05646-.50427-4.79037-2.4375-6.64063.67626-.1211 1.3764-.0229 1.9687-.0156 3.69346.0455 6.71747-1.84751 7.61918-4.62953.60147-1.85568.60872-3.93769-.1237-5.52672-1.04954-2.27703-2.15872-3.25941-4.27673-5-2.38758-1.96213-7.89991-4.14917-9.375-6.4375-1.57936-2.45007-1.12088-4.96285.1875-6.40625 1.28322-1.41565 3.38649-2.08246 5.65625-.125 1.36234 1.17489 2.18876 2.84234 3.3125 3.875 1.31106 1.20479 3.59662 2.19949 5.5625.9375 2.03937-1.30917 2.31034-3.24353 2.11136-4.89091.34226-1.35079 1.51989-2.50333 3.57875-2.61078-.65427-1.37477-3.65824-2.76382-4.93459.11131-1.53218-2.28661-4.46066-1.17592-5.00879 1.00176 1.53103-.35282 3.2112.18196 4.36463 1.74769z" fill="#f6b721" stroke="#000" stroke-width=".7" transform="translate(-38.245434 -121.29877)"/><path d="m287.52071 206.60325c1.3205-.25457 2.78119.65642 4.20509 1.22926.84871.34144 1.61283.22874 1.89604.44097l-1.28533.2552 1.60388 3.0978c-.76159-1.54418-4.98624-4.68483-6.41971-5.02321zm-3.20364 8.66048c.33353 2.65196 1.12622 4.69561 2.53125 6.21875s3.36959 2.50317 5.9375 3.125c-.88875-1.43111-3.85419-2.50156-5.1875-3.78125-1.79769-1.72539-2.13779-4.65801-3.28125-5.5625zm7.64885 17.1837c.38672-.84374 1.11733-1.85641 1.24737-2.96075s.0527-2.23001-.44126-3.06722c-.60714.42285-1.08347 5.86067-.80611 6.02797zm-8.83557-18.55809c.55144-.9541-.72329-1.94941-1.44028-2.17782-.71701-.22845-1.71368.16864-1.99424 1.0716.97135-.75419 2.68057-.0796 3.43452 1.10622zm-16.43066-.82526c.49417 1.93585 5.94083 4.45145 7.04509 3.86306l1.57328-.98788c-1.96411 1.08994-7.11038-.99011-8.61839-2.87522zm-2.7013.42799c-.0825 1.57373 6.09882 5.35173 7.5417 5.08684l1.62172-.90618c-2.13367 1.22564-9.10845-3.18895-9.16344-4.1807zm-1.42763 1.8696c.27135 1.97942 5.26897 5.09673 6.43286 4.63743l1.6752-.80301c-2.60841.67061-7.09007-1.89509-8.10807-3.83446zm-1.55439 1.81136c-.12686 1.51251 3.10031 3.92909 4.61692 4.22685l1.74873-.62694c-2.20202.37914-5.73841-2.03636-6.36566-3.59995zm-2.46139.43318c-.17774 1.28868 2.55052 4.54345 3.76945 4.65836l1.81597-.39162c-1.75659.48983-5.40591-3.31925-5.58543-4.26678zm-1.43283 1.97195c-.0709.70714.74472 2.60949 1.97227 3.22576l1.84898-.17998c-2.35558-.27546-3.60277-2.57465-3.82125-3.04582zm-2.19165 1.11496c.009.73983.20868 1.91631 1.14348 2.52403l1.85637-.0708c-1.90698-.39847-2.7868-2.00418-2.99985-2.45327zm-8.98924 2.66343c.17351 1.08824 1.79049 1.05711 2.49103.78235.70056-.27477 1.22384-1.21134.87231-2.08911-.27846 1.19782-2.03051 1.75181-3.36334 1.30676zm.0411 2.53113c.17351 1.08824 1.79049 1.05711 2.49103.78235.70056-.27477 1.22384-1.21134.87231-2.08911-.27846 1.19782-2.03051 1.75181-3.36334 1.30676zm-4.35412 7.6872c.75767-.53609 1.89758-1.04589 2.56385-1.93615s1.16382-1.90295 1.15625-2.875c-.73733.0614-3.87618 4.52732-3.7201 4.81115zm45.84922.72216s-1.47592-.0869-2.34375.0625c-.57415.0988-1.14008.32555-1.625.6875-.55508.41433-1.22393.94445-1.40625 1.75-.0808.35719.0158.72052.0937 1 .078.27948.15625.5.15625.5l.65625-.28125s-.0923-.17697-.15625-.40625c-.064-.22928-.0914-.52873-.0625-.65625.11338-.50097.6066-.9568 1.125-1.34375 1.23459-1.06744 2.43008-.74771 3.56245-1.3125zm-50.47287-.68956s-1.47592-.0869-2.34375.0625c-.57415.0988-1.14008.32555-1.625.6875-.55508.41433-1.22393.94445-1.40625 1.75-.0808.35719.0158.72052.0937 1 .078.27948.15625.5.15625.5l.65625-.28125s-.0923-.17697-.15625-.40625c-.064-.22928-.0914-.52873-.0625-.65625.11338-.50097.6066-.9568 1.125-1.34375 1.23459-1.06744 2.43008-.74771 3.56245-1.3125z"/><path d="m257.41801 208.83034-.90836.52233c-6.17627 2.38032-10.93327 2.30127-17.14757 0l-.88389 2.49237c-.70648 2.81877-.31842 5.30177.64819 7.30687.58927-.28071 1.17853-.88803 1.76779-1.47316.2909.9735.16066 2.35775 1.17853 3.47665 1.15448-.64819 1.8712-1.53208 2.29812-2.18027.1967 1.33156.70386 2.3417 1.72397 3.06417 1.02011-.72247 1.52727-1.73262 1.72397-3.06418.42692.64819 1.14364 1.7678 2.29812 2.41599 1.01787-1.1189 1.00548-1.79604 1.32585-2.90812.51532 1.1578 1.17311 1.74707 2.32759 2.39526 1.01787-1.1189.88763-2.50315 1.17853-3.47665.48808.78749 1.10607 1.33734 1.76779 1.47316.50531-.72275.87323-1.88058.86874-2.92727.94897.7443 1.83246.96653 2.43159 1.01596.23892-1.36316.18787-2.4169-.007-3.63045.89457.30787 1.06685.58839 2.16724.59049.73592-2.70158-.13921-5.62512-2.69877-7.6965z" fill="#f6b721" stroke="#000" stroke-width=".7"/><path d="m261.7864 213.84129-1.46594-.0966-.4752.97147c-.0255-1.31826-.73254-2.50522-.8702-3.21865.33079.7522 1.34203 1.60975 2.81134 2.34377zm-2.77001 2.8403-1.2314-.48451-.59358.90401c.14049-1.311-.069-3.4583-.11586-4.18337.23358.78782.85416 2.84003 1.94084 3.76387zm-3.24433 1.46711-.72708-.48451-.59358.90401c.14049-1.311-.11486-3.91678-.16171-4.64185.23358.78782 1.03755 3.34436 1.48237 4.22235zm-3.53026 1.14619-.72708-.48451-.59358.90401c.14049-1.311.20607-3.64169.15922-4.36676.23358.78782.71662 3.06927 1.16144 3.94726zm-3.62196.43556-.72708-.48451-.59358.90401c.14049-1.311.20607-3.64169.15922-4.36676.23358.78782.71662 3.06927 1.16144 3.94726zm-5.126.13754.72708-.48451.59358.90401c-.14049-1.311-.20607-2.95398-.15922-3.67905-.23358.78782-.71662 2.38156-1.16144 3.25955zm-3.4221-1.43787.72708-.48451.59358.90401c-.14049-1.311-.20607-2.95398-.15922-3.67905-.23358.78782-.71662 2.38156-1.16144 3.25955z"/><path d="m237.64803 201.03571s-2.27902 4.00182-2.73436 6.06686c-.29465 1.33627-.25635 3.41795-.25635 3.41795.74056-.0465 1.48111-.21018 2.22167-.93993.0766 1.13932-.0368 2.27863.68359 3.41795.74056-.28565 1.65201-.66152 2.39257-2.05077.0572 1.41687.31956 2.25258 1.11083 3.58885.97021-.30973 1.73157-1.46442 2.47802-2.22167.0159 1.03333.27362 2.18758 1.19628 3.6743 1.21148-.72613 1.91561-2.40591 2.19671-3.3592.30747.90065.98524 2.63307 2.19672 3.3592.92266-1.48672 1.18038-2.64097 1.19628-3.6743.74645.75725 1.50781 1.91194 2.47802 2.22167.79127-1.33627 1.05363-2.17198 1.11083-3.58885.74056 1.38925 1.65201 1.76512 2.39257 2.05077.72039-1.13932.60699-2.27863.68359-3.41795.74056.72975 1.75474 1.3625 2.4953 1.409.14734-.14734.72641-2.14436.44725-3.33977.87089.75554 1.61503 1.25907 2.90059 1.22263.21049-1.10384.0302-2.20772-.18544-3.20797 1.39737.52749 2.91111.67104 3.99155.10274-2.52118-4.68344-6.50683-5.44848-10.88381-6.256-4.95995 4.5104-10.90832 5.34949-18.11241 1.52449z" fill="#f6b721" stroke="#000" stroke-width=".7"/><path d="m263.85704 206.09773-.8686-.0945-.10961 1.0759c-.48013-1.22797-1.21766-2.95863-1.59371-3.58033.36559.72794 2.25054 2.38064 3.58353 2.59889zm-2.68699 2.34365-1.15937-.72697.12749 1.65183c-.41028-1.25304-1.04926-3.02246-1.38974-3.66433.53651.62239 1.65547 2.12162 2.42162 2.73947zm-3.02009 2.23413-1.01717-.91541-.1583 1.64916c-.18882-1.30491-.51419-3.15782-.73929-3.84866.42156.70534 1.2662 2.37458 1.91476 3.11491zm-3.29309 1.21116-.78292-.38785-.47347.97232c-.0278-1.31821-.12411-3.197-.26302-3.91018.33212.7516.96627 2.51161 1.51941 3.32571zm-7.23075 1.68131-.67028-.56045-.68806.83436c.28176-1.28805.62822-3.23346.66023-3.95934.14683.80848.35106 2.76441.69811 3.68543zm3.61787-.52519-.78292-.38785-.47347.97232c-.0278-1.31821-.12411-3.197-.26302-3.91018.33212.7516.96627 2.51161 1.51941 3.32571zm-8.64882.19269.78292-.38785.47347.97232c.0278-1.31821.12411-3.197.26302-3.91018-.33212.7516-.96627 2.51161-1.51941 3.32571zm-3.58379-1.29814.78292-.38785.47347.97232c.0278-1.31821.3168-3.67872.45571-4.3919-.33212.7516-1.15896 2.99333-1.7121 3.80743zm-3.04843-1.83381.82334-.29242.35501 1.02154c.18371-1.30564.52108-2.91495.74346-3.60666-.41878.70699-1.27617 2.13466-1.92181 2.87754z"/><path d="m257.11463 197.0571c.79525.23939 1.12109-.0432 2.03852.0925-.49144-2.09601-.63508-2.83919-2.29623-4.25292 1.22566.35452 1.41252.026 2.19089.10707-1.72873-3.1509-1.41275-6.34263-3.99482-7.97291.80809-2.14281.27934-2.57769-.42159-4.52092-.1751-.48557-.0859-1.54623-.0859-1.54623s-2.21076.45276-3.00656 1.43703c-.45899.56769-1.03875 1.36585-1.03875 1.36585.18213-1.19293.0618-1.71743-.85902-2.49115-.38691.52902-.8266 1.71503-1.28853 2.17696-.1574-1.07877-.36977-2.00422-1.26029-2.69579-.77699.74789-1.22249 1.58518-1.26029 2.69579-.46193-.46193-.90162-1.64794-1.28853-2.17696-.92082.77372-1.04115 1.29822-.85902 2.49115 0 0-.57976-.79816-1.03875-1.36585-.7958-.98427-3.00656-1.43703-3.00656-1.43703s.0248 1.04204-.0859 1.54623c-.25643 1.16764-1.51233 2.6788-.42159 4.52092-3.1294 2.17762-2.44854 5.09568-4.17727 8.24658.77837-.0811.92711.3414 2.15277-.0131-1.66115 1.41373-1.77734 1.70043-2.26878 3.79644.60335-.2404 1.11483-.0479 2.28891-.37625-.39896.93495-1.25815 1.61809-1.7369 2.06106-1.18318 1.09474-1.66908 2.1926-1.96197 3.45802.77537.01 1.55075-.26314 2.32612-.48126-.26585 1.0097-.39717 1.75224-.0802 3.20844 1.16336-.4676 1.73973-.96071 2.48654-1.4438-.0955.93579-.14724 2.03201.16042 2.9678.77537-.22726 1.55074-.7355 2.32611-1.60422-.0181 1.22126.31676 2.08956.7219 2.88759.71222-.4463 1.42999-.88816 2.00527-1.44379.23175.86749.28669 1.6171 1.12295 2.88759 1.27746-.56964 1.53799-1.39351 2.00527-2.16569.17745.71297.49384 1.49541 1.42791 2.58668 1.22168-.88326 1.15997-1.76652 1.50393-2.64978.27803.63377.86945 1.75396 1.7904 2.22009.69567-.78777.80395-1.86201 1.00261-2.50655.62718.78126 1.35613 1.46075 2.36331 1.86201.52421-1.05004.54132-1.93105.50133-2.79302.88326 1.01787 1.76652 1.30483 2.64978 1.57555.22036-.95487.1595-1.90975 0-2.86462.931.73158 1.86201 1.08179 2.79301.85938.0473-1.05334-.26096-1.84215-.57293-2.72139.93685.17878 1.83093.27204 2.57817.0716 0 0-.50977-1.25292-1.14586-1.862-.81913-.78435-1.92713-1.35847-2.74393-2.14526-.47252-.45516-1.53595-1.59182-1.53595-1.59182z" fill="#f6b721" stroke="#000" stroke-width=".7"/><path d="m278.75 301.96875s.067.72697-.0312 1.09375c-.18934.70738-.52608 1.29988-.5625 2.03125-.0248.49884.46875 1.4375.46875 1.4375s.32087-1.15076.84375-1.375c.52051-.22322 1.59375.3125 1.59375.3125s-.0694-1.06203-.21875-1.46875c-.33501-.91218-2.09375-2.03125-2.09375-2.03125zm13.0625 0s-1.75874 1.11907-2.09375 2.03125c-.14935.40672-.21875 1.46875-.21875 1.46875s1.07324-.53572 1.59375-.3125c.52288.22424.84375 1.375.84375 1.375s.49355-.93866.46875-1.4375c-.0364-.73137-.34191-1.32387-.53125-2.03125-.0982-.36678-.0625-1.09375-.0625-1.09375zm-13.59375 6.15625c-.77984.52278-1.05356 1.4082-.84375 2.1875.16109.59832.67136 1.06411 1.34375 1.34375-.0341.032-.0272.0273-.0625.0625-.26634.26542-.57322.61882-.6875 1.0625-.47553 1.84618-.16462 3.64588.875 4.8125-.54954.80756-1.57961 2.6077-2.03125 3.625.90691-.80966 1.83889-2.27187 2.53125-3.15625.30749.24348.65649.43141 1.03125.59375-.3856.80244-1.1555 2.92307-1.4375 4.0625.81986-1.0417 1.54511-2.87297 2.09375-3.8125.26974.0783.55684.11396.84375.15625-.21366.67301-.13635 1.38113.21875 1.96875-.38783.76059-1.19879 2.96869-1.5 4.125.77482-.9601 1.45658-2.58291 2-3.5625.31295.27538.6944.48486 1.15625.625-.17444.97876-.37295 3.0271-.375 4.125.50998-1.12373.78147-2.88441 1.0625-3.96875.19346.024.38316.0625.59375.0625.12174 0 .22766-.0231.34375-.0312.19594 1.10681.32993 2.83529.75 3.96875.0743-1.07145.037-3.04903-.0625-4.0625.35217-.0807.65984-.21761.9375-.375.44221 1.02004.94041 2.80827 1.625 3.875-.17645-1.19667-.73088-3.54277-1.03125-4.3125.0849-.0842.17894-.15671.25-.25.37419-.49122.50445-1.10959.4375-1.71875.93025.83302 2.45278 2.31496 3.46875 2.96875-.60298-.93082-2.26454-2.75791-3.03125-3.53125.78835-.18448 1.52231-.49078 2.09375-.96875.8837.80593 2.68249 3.10543 3.78125 3.8125-.63902-.98646-2.63194-3.60107-3.3125-4.3125.9816-1.1679 1.27681-2.91612.8125-4.71875-.11428-.44368-.42116-.79708-.6875-1.0625-.0353-.0352-.0284-.0305-.0625-.0625.67238-.27964 1.18266-.74543 1.34375-1.34375.20981-.7793-.0639-1.66472-.84375-2.1875.2197.68729.38213 1.23399.1875 2.03125-.12428.50908-.57257.95157-1.375 1.0625l-.875.125.71875.5s.18051.15003.40625.375.47855.54544.53125.75c.42798 1.66158.00011 3.06842-.90625 4.0625-.90637.99408-2.34342 1.68383-3.96875 1.4375-1.12636-.17071-1.15762-.45244-1.15625-1.46875.21031-.0239.47229-.0837.71875-.21875.22373-.12265.31365-.253.40625-.375.0926-.12205.1681-.20975.1875-.21875.29337-.1387.75-.0937.75-.0937l.375.0937.0312-.40625c.0251-.35246.1025-.57796-.15625-1.15396-.20983-.46709-.52946-.74856-.75-.90625-.11027-.0788-.17435-.11495-.21875-.15625s-.0545-.0595-.0625-.0937c-.28784-1.16936-.37693-2.18223-.0937-3.15854.16949-.58435.74907-1.07841 1.5-1.1875.8089-.11751 1.79479.13065 2.25.21875-.44854-.56115-1.32418-1.10298-2.4375-.90625-.9117.1611-1.73738.78217-2 1.6875-.32395 1.11676-.203 2.29695.0937 3.50229.0448.18207.14214.33708.25.4375s.2165.1813.3125.25c.1921.13735.38147.26032.53125.59375.1286.28621.0784.27677.0625.52896-.22486-.0185-.36268-.19961-.71875-.0312-.23646.11179-.36657.30285-.46875.4375-.10215.13465-.19335.23905-.15625.21875-.0973.0533-.30401.1063-.46875.125s-.3125 0-.3125 0-.14776.0187-.3125 0-.37147-.0717-.46875-.125c.0371.0203-.0541-.0841-.15625-.21875-.10218-.13465-.23229-.32571-.46875-.4375-.35607-.16836-.49389.0127-.71875.0312-.0159-.25219-.0661-.24275.0625-.52896.14978-.33343.33915-.4564.53125-.59375.096-.0687.20464-.14958.3125-.25s.20517-.25543.25-.4375c.29675-1.20534.4177-2.38553.0937-3.50229-.26262-.90533-1.0883-1.5264-2-1.6875-1.11332-.19673-1.98896.3451-2.4375.90625.45521-.0881 1.4411-.33626 2.25-.21875.75093.10909 1.33051.60315 1.5 1.1875.28318.97631.19409 1.98918-.0937 3.15854-.008.0343-.0181.0525-.0625.0937-.0444.0413-.10848.0774-.21875.15625-.22054.15769-.54017.43916-.75.90625-.25875.576-.18131.8015-.15625 1.15396l.0312.40625.375-.0937s.45663-.0449.75.0937c.0194.009.0949.0967.1875.21875.0926.122.18252.25235.40625.375.24646.1351.50844.19484.71875.21875.0678 1.07658-.10453 1.27928-1.15625 1.46875-1.61785.29147-3.06238-.44342-3.96875-1.4375s-1.33424-2.40092-.90625-4.0625c.0527-.20456.30551-.52503.53125-.75s.40625-.375.40625-.375l.71875-.5-.875-.125c-.80243-.11093-1.25072-.55342-1.375-1.0625-.19463-.79726-.0322-1.34396.1875-2.03125zm3.5 1.78125c-.26999.003-.59328.0969-.96875.28125.12896.79717.97031 1.85342 2.40625 1-.22911-.61174-.62753-1.28981-1.4375-1.28125zm6.625 0c-.80997-.009-1.20839.66951-1.4375 1.28125 1.43594.85342 2.27729-.20283 2.40625-1-.37547-.18431-.69876-.27839-.96875-.28125zm-3.3125 8.6875c.0905.0559.18173.11127.40625.21875.31314.14991.67473.27891 1.0625.3125.33799.0293.66913.0466 1 .0312.22478.54153.14302.93133-.21875 1.40625-.39777.52218-1.1347.90625-2.25.90625s-1.88348-.38407-2.28125-.90625c-.36177-.47492-.41695-.86472-.1875-1.40625.33087.0153.66201-.002 1-.0312.38777-.0336.74936-.16259 1.0625-.3125.22452-.10748.31571-.16283.40625-.21875zm-8.71875 1.5c-1.17453.90802-2.22456 2.64414-3.4375 3.0625l1.09375-.15625.125 1.15625c.58011-2.49242 1.751-2.36292 2.21875-4.0625zm2.15625.5c-1.02969 1.06947-2.11097 4.12811-3.25 4.71875l1.0625-.34375.28125 1.125c.21075-2.55034 1.69114-3.75041 1.90625-5.5zm16.9375.4375c.31687 1.42646 2.40036 1.92682 2.9375 4.125l.125-1.125 1.28125.0625c-2.3135-1.12517-2.3025-1.36523-4.34375-3.0625zm-2.40625.125c.0504 1.46037 2.78061 3.61563 2.90625 5.875l.34375-1.0625 1 .46875c-1.27452-1.16422-3.29772-4.43182-4.25-5.28125zm-13.0625 1.84375c-.82975 1.23108-1.16744 3.06546-2.1875 3.84375l.96875-.5.5 1.0625c-.23239-2.54846.8087-2.64578.71875-4.40625zm11.65625.0937c-.0548 1.46021 1.75801 2.68402 1.40625 5.21875l.53125-1.03125.96875.5625c-.9824-.82531-2.01756-3.83425-2.90625-4.75zm-2.1875.4375c-.35312 1.72704 1.14345 3.10903.53125 5.59375l.625-1 .90625.65625c-.89171-.92255-1.42689-3.90834-2.0625-5.25zm-7.3125 1c-.63561 1.34166-.54579 3.1087-1.4375 4.03125l.90625-.65625.625.96875c-.6122-2.48472.2594-2.61671-.0937-4.34375zm4.9375.21875c-.48273 1.69528.79894 2.25639 0 4.6875l.71875-.90625.8125.6875c-.81916-.98754-.99925-3.08273-1.53125-4.46875zm-2.15625 1c-.532 1.38602-.14959 2.48121-.96875 3.46875l.84375-.7187.6875.9375c-.79894-2.43111-.0793-1.99222-.5625-3.6875z" transform="translate(-38.245434 -121.29877)"/></g></g><g fill="#ffbb26" transform="translate(-56.857112 -102.222145)"><g stroke="#000"><path d="m407.79454 143.20659c0 20.74074-24.5081 37.55444-54.74037 37.55444s-54.74037-16.8137-54.74037-37.55444c0-20.74075 24.5081-37.55444 54.74037-37.55444s54.74037 16.81369 54.74037 37.55444z" stroke-width="3.031676" transform="matrix(.31342984 0 0 .34713155 471.199402 273.963791)"/><g stroke-width="3.381146" transform="matrix(.29575772 0 0 .29575772 488.920617 315.38815)"><path d="m377.57946 167.05078c0 13.76295-10.64754 24.92003-23.78194 24.92003-13.13441 0-23.78195-11.15708-23.78195-24.92003s10.64754-24.92002 23.78195-24.92002c13.1344 0 23.78194 11.15707 23.78194 24.92002z" stroke-width="11.611929" transform="matrix(.29117865 0 0 .29117865 211.21392 -68.982477)"/><path d="m314.20293-42.574542c-5.33247 0-9.67114 4.338663-9.67114 9.671138s4.34068 9.648436 9.67114 9.648436c5.33047 0 9.64844-4.317973 9.64844-9.648436s-4.31596-9.671138-9.64844-9.671138z" stroke-width="3.381146" transform="translate(-.57001)"/></g><path d="m597.30497 339.18811c2.49721-12.38635 5.63791-16.3208 9.26662-20.75904l-1.54303-1.02088-1.54303 2.17897-1.23677-.46362-1.89285 3.25512-1.24847-.20418-2.09703 4.77474-2.30447-.52214-.61253-5.51277h-3.77727l-.40835-4.69606h-4.38979l-.40836-4.90024h-6.50506l-.40835 4.90024h-4.3898l-.40835 4.69606h-3.77727l-.61253 5.51277-2.30447.52214-2.09703-4.77474-1.24847.20418-1.89285-3.25512-1.23677.46362-1.54303-2.17897-1.54303 1.02088c3.62871 4.43824 6.76941 8.37269 9.26662 20.75904 5.13449-1.74275 10.23619-2.70797 15.44786-2.75489 5.21167.0469 10.31337 1.01214 15.44786 2.75489z"/><path d="m581.78791 338.58742a1.0833249 1.0833249 0 0 1 -.73823-.34605l-.43833-.48446a1.0833249 1.0833249 0 0 1 -.27683-.76131v-.13842l-.39219.25377a1.0833249 1.0833249 0 0 1 -1.56875-.48446l-.27683-.62289a1.0833249 1.0833249 0 0 1 -.0461-.0692 1.0833249 1.0833249 0 0 1 -.0692.023l-.64595.13842a1.0833249 1.0833249 0 0 1 -1.31498-.992l-.0461-.66902a1.0833249 1.0833249 0 0 1 0-.0461 1.0833249 1.0833249 0 0 1 -.0692 0l-.64595-.0461a1.0833249 1.0833249 0 0 1 -.99201-1.31498l.13842-.64596a1.0833249 1.0833249 0 0 1 .023-.11535 1.0833249 1.0833249 0 0 1 -.0461-.023l-.62293-.2538a1.0833249 1.0833249 0 0 1 -.50753-1.56875l.34605-.55367a1.0833249 1.0833249 0 0 1 .0461-.0461 1.0833249 1.0833249 0 0 1 -.0692-.0461l-.50753-.43833a1.0833249 1.0833249 0 0 1 0-1.66103l.50753-.43832a1.0833249 1.0833249 0 0 1 .0461-.023 1.0833249 1.0833249 0 0 1 -.023-.0692l-.34605-.57674a1.0833249 1.0833249 0 0 1 .4844-1.54575l.62288-.27684a1.0833249 1.0833249 0 0 1 .0692-.023 1.0833249 1.0833249 0 0 1 -.023-.0923l-.13842-.64596a1.0833249 1.0833249 0 0 1 .992-1.31497l.64596-.0461a1.0833249 1.0833249 0 0 1 .0692 0 1.0833249 1.0833249 0 0 1 0-.0692l.0461-.64595a1.0833249 1.0833249 0 0 1 1.31501-.99208l.64596.13842a1.0833249 1.0833249 0 0 1 .0923.023 1.0833249 1.0833249 0 0 1 .023-.0692l.27684-.62288a1.0833249 1.0833249 0 0 1 1.56874-.48447l.55368.34605a1.0833249 1.0833249 0 0 1 .0461.0461 1.0833249 1.0833249 0 0 1 .0461-.0692l.43832-.50754a1.0833249 1.0833249 0 0 1 1.66103 0l.43833.50754a1.0833249 1.0833249 0 0 1 .023.0692 1.0833249 1.0833249 0 0 1 .0692-.0461l.55368-.34605a1.0833249 1.0833249 0 0 1 1.56874.48447l.27684.62288a1.0833249 1.0833249 0 0 1 .0461.0692 1.0833249 1.0833249 0 0 1 .0692-.023l.64596-.13842a1.0833249 1.0833249 0 0 1 1.31498.992l.0461.64596a1.0833249 1.0833249 0 0 1 0 .0692 1.0833249 1.0833249 0 0 1 .0692 0l.64595.0461a1.0833249 1.0833249 0 0 1 .992 1.31498l-.13842.64595a1.0833249 1.0833249 0 0 1 -.023.0923 1.0833249 1.0833249 0 0 1 .0692.023l.62307.27691a1.0833249 1.0833249 0 0 1 .48447 1.54567l-.34605.57675a1.0833249 1.0833249 0 0 1 -.023.0692 1.0833249 1.0833249 0 0 1 .0461.023l.50753.43833a1.0833249 1.0833249 0 0 1 0 1.66103l-.50757.4384a1.0833249 1.0833249 0 0 1 -.0692.0461 1.0833249 1.0833249 0 0 1 .0461.0461l.34605.55367a1.0833249 1.0833249 0 0 1 -.50754 1.56875l-.62288.25376a1.0833249 1.0833249 0 0 1 -.0692.023 1.0833249 1.0833249 0 0 1 .0461.11535l.13842.64595a1.0833249 1.0833249 0 0 1 -.992 1.31498l-.64595.0461a1.0833249 1.0833249 0 0 1 -.0692 0 1.0833249 1.0833249 0 0 1 0 .0461l-.0461.66902a1.0833249 1.0833249 0 0 1 -1.31509.99204l-.64595-.13842a1.0833249 1.0833249 0 0 1 -.0923-.023 1.0833249 1.0833249 0 0 1 -.023.0692l-.27684.62289a1.0833249 1.0833249 0 0 1 -1.56875.48446l-.39218-.25377v.13842a1.0833249 1.0833249 0 0 1 -.27684.76131l-.43833.48446a1.0833249 1.0833249 0 0 1 -.87665.34605z"/><g stroke-width="3.381146" transform="matrix(.29575772 0 0 .29575772 488.88601 315.49305)"><path d="m293.12419 82.520673c-3.13103.609677-5.07568 4.319226-4.31423 8.229654.76145 3.910426 3.95756 6.604955 7.0843 5.996115 3.12671-.608843 5.06643-4.309008 4.30605-8.214067-.76041-3.905059-3.94511-6.621381-7.07612-6.011702z" transform="matrix(.99415356 .10797538 -.10797538 .99415356 -15.023418 -64.38491)"/><path d="m293.12419 82.520673c-3.13103.609677-5.07568 4.319226-4.31423 8.229654.76145 3.910426 3.95756 6.604955 7.0843 5.996115 3.12671-.608843 5.06643-4.309008 4.30605-8.214067-.76041-3.905059-3.94511-6.621381-7.07612-6.011702z" transform="matrix(-.99415356 .10797538 .10797538 .99415356 643.721138 -64.38491)"/></g><g stroke-width="9.034118" transform="matrix(.29575772 0 0 .29575772 488.9287 315.38815)"><path d="m366.19867 167.05078c0 6.84897-5.55219 12.40115-12.40115 12.40115-6.84897 0-12.40115-5.55218-12.40115-12.40115 0-6.84896 5.55218-12.40115 12.40115-12.40115 6.84896 0 12.40115 5.55219 12.40115 12.40115z" transform="matrix(.31313526 -.11874765 .14830778 .39108474 113.37968 18.162371)"/><path d="m366.19867 167.05078c0 6.84897-5.55219 12.40115-12.40115 12.40115-6.84897 0-12.40115-5.55218-12.40115-12.40115 0-6.84896 5.55218-12.40115 12.40115-12.40115 6.84896 0 12.40115 5.55219 12.40115 12.40115z" transform="matrix(-.31313526 -.11874765 -.14830778 .39108474 515.02934 18.162371)"/></g><path d="m581.86107 323.39581c-3.04716 0-5.56767 2.52051-5.56767 5.56768 0 3.04716 2.52788 5.55975 5.56767 5.55975s5.55976-2.51997 5.55976-5.55975c0-3.03979-2.5126-5.56768-5.55976-5.56768z"/><path d="m566.99838 350.29606c.59794-4.41891-.45271-10.00373-.88942-11.2091 5.26488-1.55807 10.46479-2.80228 15.74815-2.80228s10.48327 1.24421 15.74815 2.80228c-.43671 1.20537-1.48736 6.79019-.88942 11.2091-4.23099-1.84804-9.25171-2.80228-14.85873-2.80228s-10.62773.95424-14.85873 2.80228z"/></g><g stroke-width="3.381146" transform="matrix(.29575772 0 0 .29575772 488.86557 315.38815)"><path d="m353.8125 150.5625c-9.06256 0-16.5 7.43744-16.5 16.5s7.44988 16.46875 16.5 16.46875 16.46875-7.41863 16.46875-16.46875-7.40619-16.5-16.46875-16.5z" stroke="#000" stroke-width="9.034118" transform="matrix(-.3337106 -.02814124 -.03514649 .41678195 456.378652 30.59445)"/><g stroke-width="7.395669" transform="matrix(-.3337106 -.02814124 -.03514649 .41678195 456.378653 30.59445)"><path d="m366.19867 167.05078c0 6.84897-5.55219 12.40115-12.40115 12.40115-6.84897 0-12.40115-5.55218-12.40115-12.40115 0-6.84896 5.55218-12.40115 12.40115-12.40115 6.84896 0 12.40115 5.55219 12.40115 12.40115z"/><path d="m366.19867 167.05078c0 6.84897-5.55219 12.40115-12.40115 12.40115-6.84897 0-12.40115-5.55218-12.40115-12.40115 0-6.84896 5.55218-12.40115 12.40115-12.40115 6.84896 0 12.40115 5.55219 12.40115 12.40115z"/></g><path d="m353.8125 150.375c-9.16121 0-16.6875 7.52629-16.6875 16.6875s7.53929 16.65625 16.6875 16.65625 16.65625-7.50804 16.65625-16.65625-7.49504-16.6875-16.65625-16.6875z" stroke="#000" stroke-width="10.192094" transform="matrix(-.29365998 -.04337403 -.0541712 .36676145 472.415606 50.3797)"/><g stroke-width="8.343631" transform="matrix(-.29365998 -.04337403 -.0541712 .36676145 472.415609 50.379702)"><path d="m366.19867 167.05078c0 6.84897-5.55219 12.40115-12.40115 12.40115-6.84897 0-12.40115-5.55218-12.40115-12.40115 0-6.84896 5.55218-12.40115 12.40115-12.40115 6.84896 0 12.40115 5.55219 12.40115 12.40115z"/><path d="m366.19867 167.05078c0 6.84897-5.55219 12.40115-12.40115 12.40115-6.84897 0-12.40115-5.55218-12.40115-12.40115 0-6.84896 5.55218-12.40115 12.40115-12.40115 6.84896 0 12.40115 5.55219 12.40115 12.40115z"/></g><path d="m353.8125 150.5625c-9.06256 0-16.5 7.43744-16.5 16.5s7.44988 16.46875 16.5 16.46875 16.46875-7.41863 16.46875-16.46875-7.40619-16.5-16.46875-16.5z" stroke="#000" stroke-width="9.034118" transform="matrix(.3337106 -.02814124 .03514649 .41678195 172.457308 30.59445)"/><g stroke-width="7.395669" transform="matrix(.3337106 -.02814124 .03514649 .41678195 172.457307 30.59445)"><path d="m366.19867 167.05078c0 6.84897-5.55219 12.40115-12.40115 12.40115-6.84897 0-12.40115-5.55218-12.40115-12.40115 0-6.84896 5.55218-12.40115 12.40115-12.40115 6.84896 0 12.40115 5.55219 12.40115 12.40115z"/><path d="m366.19867 167.05078c0 6.84897-5.55219 12.40115-12.40115 12.40115-6.84897 0-12.40115-5.55218-12.40115-12.40115 0-6.84896 5.55218-12.40115 12.40115-12.40115 6.84896 0 12.40115 5.55219 12.40115 12.40115z"/></g><path d="m353.8125 150.375c-9.16121 0-16.6875 7.52629-16.6875 16.6875s7.53929 16.65625 16.6875 16.65625 16.65625-7.50804 16.65625-16.65625-7.49504-16.6875-16.65625-16.6875z" stroke="#000" stroke-width="10.192094" transform="matrix(.29365998 -.04337403 .0541712 .36676145 156.420354 50.3797)"/><g stroke-width="8.343631" transform="matrix(.29365998 -.04337403 .0541712 .36676145 156.420351 50.379702)"><path d="m366.19867 167.05078c0 6.84897-5.55219 12.40115-12.40115 12.40115-6.84897 0-12.40115-5.55218-12.40115-12.40115 0-6.84896 5.55218-12.40115 12.40115-12.40115 6.84896 0 12.40115 5.55219 12.40115 12.40115z"/><path d="m366.19867 167.05078c0 6.84897-5.55219 12.40115-12.40115 12.40115-6.84897 0-12.40115-5.55218-12.40115-12.40115 0-6.84896 5.55218-12.40115 12.40115-12.40115 6.84896 0 12.40115 5.55219 12.40115 12.40115z"/></g></g><path d="m581.84375 334.78125c-5.51886 0-10.84203 1.30233-16.15625 2.875-.60191 1.17912-.63254 2.21543.84375 2.875 5.21554-1.54347 10.26464-2.75 15.3125-2.75s10.12821 1.20653 15.34375 2.75c1.56656-.63701 1.33786-1.72283.84375-2.875-5.31422-1.57267-10.66864-2.875-16.1875-2.875zm0 11.21875c-5.77721 0-10.98119.9598-15.4375 2.90625-1.04741 1.69454.23363 2.7512 1.1875 2.75 4.00569-1.74963 8.81317-2.65625 14.25-2.65625s10.27558.90662 14.28125 2.65625c1.94319-.36696 1.79526-1.84892 1.1875-2.75-4.45631-1.94645-9.69154-2.90625-15.46875-2.90625z" stroke="#000"/></g></svg>